<svg width="39" height="37" viewBox="0 0 39 37" fill="none" xmlns="http://www.w3.org/2000/svg">
<path fill-rule="evenodd" clip-rule="evenodd" d="M3.25 7.70703H11.375C14.9649 7.70703 17.875 10.4679 17.875 13.8737C17.875 15.384 17.3027 16.7674 16.3527 17.8396C18.2388 18.919 19.5 20.8816 19.5 23.1237C19.5 26.5295 16.5899 29.2904 13 29.2904H3.25V20.0404V16.957V7.70703ZM22.75 9.24871V12.332H34.125V9.24871H22.75ZM28.6613 26.207C30.3521 26.207 31.3911 25.879 31.9458 25.3853C32.238 25.1252 32.3599 24.8359 32.3599 24.6654H35.6099C35.6099 27.174 33.2321 29.2904 28.6613 29.2904C24.1386 29.2904 21.1249 26.509 21.1249 21.582C21.1249 17.0093 23.6932 13.8737 28.4374 13.8737C33.1815 13.8737 35.7499 17.0093 35.7499 21.582V23.1237H24.5189C24.9601 25.2468 26.4021 26.207 28.6613 26.207ZM32.3612 20.0404C31.9576 18.0211 30.6691 16.957 28.4374 16.957C26.2057 16.957 24.9172 18.0211 24.5136 20.0404H32.3612ZM6.49988 26.2071V20.0404H12.9999C14.7948 20.0404 16.2499 21.4208 16.2499 23.1237C16.2499 24.8266 14.7948 26.2071 12.9999 26.2071H6.49988ZM6.49988 16.957V10.7903H11.3749C13.1698 10.7903 14.6249 12.1708 14.6249 13.8737C14.6249 15.5766 13.1698 16.957 11.3749 16.957H6.49988Z" fill="white"/>
</svg>
