<svg width="68" height="34" viewBox="0 0 68 34" fill="none" xmlns="http://www.w3.org/2000/svg">
<path d="M56.195 8.65991C55.2455 5.77641 53.7523 3.1543 51.7571 0.86627L51.0017 0L50.2462 0.86627C48.251 3.1543 46.7578 5.77648 45.8082 8.65991C44.8586 11.5434 44.5015 14.5397 44.7469 17.5656L44.7496 17.5981L46.623 30.344L46.6288 30.3791C47.0136 32.4772 48.8411 34 50.9742 34C53.096 34 54.9217 32.4867 55.3153 30.4017L55.3187 30.3838L57.2484 17.6346L57.2565 17.5656C57.5017 14.5397 57.1446 11.5434 56.195 8.65991ZM53.3423 30.0462C53.1209 31.1767 52.1276 31.9954 50.9742 31.9954C49.8144 31.9954 48.82 31.1712 48.6035 30.0334L47.3421 21.4511H54.6432L53.3423 30.0462ZM54.9467 19.4465H47.0474L46.773 17.5793L51.0017 13.3506L55.2294 17.5783L54.9467 19.4465ZM51.0017 10.5156L46.6965 14.8208C46.7787 12.9441 47.1181 11.0912 47.7123 9.28698C48.4534 7.03654 49.5577 4.96081 51.0017 3.10137C52.4456 4.96081 53.5499 7.03654 54.291 9.28698C54.8852 11.0913 55.2246 12.9441 55.3068 14.8208L51.0017 10.5156Z" fill="white"/>
<path d="M22.195 8.65991C21.2455 5.77641 19.7523 3.1543 17.7571 0.86627L17.0017 0L16.2462 0.86627C14.251 3.1543 12.7578 5.77648 11.8082 8.65991C10.8586 11.5434 10.5015 14.5397 10.7469 17.5656L10.7496 17.5981L12.623 30.344L12.6288 30.3791C13.0136 32.4772 14.8411 34 16.9742 34C19.096 34 20.9217 32.4867 21.3153 30.4017L21.3187 30.3838L23.2484 17.6346L23.2565 17.5656C23.5017 14.5397 23.1446 11.5434 22.195 8.65991ZM19.3423 30.0462C19.1209 31.1767 18.1276 31.9954 16.9742 31.9954C15.8144 31.9954 14.82 31.1712 14.6035 30.0334L13.3421 21.4511H20.6432L19.3423 30.0462ZM20.9467 19.4465H13.0474L12.773 17.5793L17.0017 13.3506L21.2294 17.5783L20.9467 19.4465ZM17.0017 10.5156L12.6965 14.8208C12.7787 12.9441 13.1181 11.0912 13.7123 9.28698C14.4534 7.03654 15.5577 4.96081 17.0017 3.10137C18.4456 4.96081 19.5499 7.03654 20.291 9.28698C20.8852 11.0913 21.2246 12.9441 21.3068 14.8208L17.0017 10.5156Z" fill="white"/>
</svg>
