<svg width="184" height="183" viewBox="0 0 184 183" fill="none" xmlns="http://www.w3.org/2000/svg">
<path d="M95.4883 5.33718L95.6947 3.33203L105.168 4.29775L104.961 6.30289L95.4883 5.33718Z" fill="white"/>
<path d="M123.891 19.7881L133.29 3.17188L144.783 9.67386L135.384 26.29L133.298 25.1105L141.569 10.4848L134.249 6.34178L125.978 20.9676L123.891 19.7881Z" fill="white"/>
<path d="M140.204 27.6638C140.175 25.7987 140.801 24.1253 142.099 22.6509C143.396 21.1766 144.967 20.3288 146.824 20.115C148.682 19.9012 150.355 20.4541 151.859 21.7737C153.363 23.0933 154.13 24.6856 154.167 26.5507C154.204 28.4157 153.57 30.0892 152.272 31.5635C150.975 33.0379 149.404 33.8857 147.547 34.0994C145.689 34.3132 144.016 33.7603 142.512 32.4408C141.001 31.1212 140.234 29.5289 140.204 27.6638ZM147.244 31.8953C148.49 31.6962 149.581 31.0696 150.503 30.0154C151.424 28.9613 151.904 27.8039 151.94 26.5359C151.97 25.268 151.491 24.199 150.495 23.3292C149.5 22.4519 148.372 22.1128 147.127 22.3118C145.873 22.5109 144.79 23.1375 143.868 24.1917C142.947 25.2458 142.468 26.4032 142.431 27.6712C142.401 28.9391 142.88 30.0081 143.876 30.8779C144.871 31.7552 145.999 32.0943 147.244 31.8953Z" fill="white"/>
<path d="M149.166 38.2131L150.817 36.9673C151.378 37.7045 151.938 38.132 152.513 38.2352C153.08 38.3384 153.751 38.1615 154.518 37.6971L162.376 32.8906L168.178 40.5721L157.209 48.8507L155.83 47.0225L165.148 39.9897L161.875 35.6551L155.049 39.7833C152.911 41.1029 150.95 40.5721 149.166 38.2131Z" fill="white"/>
<path d="M159.381 52.5594L171.81 46.6914L172.79 48.7629L167.91 51.0703L170.704 56.9899L175.584 54.6825L176.564 56.754L164.135 62.622L163.155 60.5505L168.831 57.8745L166.037 51.9549L160.361 54.6309L159.381 52.5594Z" fill="white"/>
<path d="M169.581 66.2292C171.011 65.8901 172.227 66.1555 173.222 67.0254C174.218 67.9027 174.94 69.3033 175.404 71.2274L176.053 73.9328L176.635 73.7928C177.572 73.5716 178.198 73.1293 178.523 72.4732C178.847 71.8171 178.891 71.0136 178.663 70.0552C178.486 69.3107 178.117 68.7062 177.564 68.227C177.011 67.7552 176.363 67.4898 175.626 67.4456L175.684 65.3594C176.908 65.3889 177.97 65.7869 178.877 66.561C179.783 67.335 180.38 68.345 180.675 69.5834C181.073 71.2642 180.955 72.6723 180.321 73.8002C179.687 74.9354 178.508 75.7021 176.79 76.1149L168.357 78.1274L167.929 76.3213L169.735 75.5547C169.013 75.2745 168.357 74.7511 167.76 73.9771C167.163 73.203 166.75 72.3184 166.514 71.3306C166.226 70.1069 166.344 69.0306 166.875 68.087C167.406 67.1434 168.305 66.5315 169.581 66.2292ZM173.709 74.5005L174.136 74.3973L173.443 71.478C173.178 70.3649 172.751 69.5466 172.153 69.0232C171.564 68.4998 170.885 68.3302 170.126 68.5145C169.492 68.6693 169.035 68.9863 168.77 69.4655C168.504 69.952 168.445 70.527 168.608 71.1979C168.866 72.2742 169.455 73.1735 170.369 73.8886C171.284 74.6111 172.397 74.8101 173.709 74.5005Z" fill="white"/>
<path d="M168.969 82.8945L175.404 86.4699C175.913 84.6564 177.1 83.7202 178.95 83.6612C180.093 83.6317 181.022 84.0003 181.737 84.7817C182.452 85.5631 182.828 86.6026 182.865 87.9148L183.02 93.1488L169.278 93.5542L169.212 91.2616L175.375 91.0773L175.301 88.5414L169.035 85.2019L168.969 82.8945ZM177.358 88.0032L177.446 91.0331L180.882 90.9299L180.793 87.9C180.749 86.4846 180.159 85.7917 179.017 85.8212C177.867 85.858 177.314 86.5805 177.358 88.0032Z" fill="white"/>
<path d="M165.674 114.508L178.435 119.624L174.292 129.952L161.531 124.836L162.386 122.713L173.223 127.055L175.656 120.98L164.819 116.638L165.674 114.508Z" fill="white"/>
<path d="M160.422 130.746C162.265 130.466 164.005 130.871 165.642 131.962C167.278 133.053 168.318 134.498 168.775 136.312C169.232 138.125 168.9 139.858 167.794 141.524C166.689 143.19 165.207 144.163 163.364 144.443C161.521 144.723 159.781 144.318 158.145 143.227C156.508 142.136 155.469 140.691 155.011 138.877C154.554 137.064 154.886 135.331 155.992 133.665C157.105 131.992 158.579 131.019 160.422 130.746ZM157.157 138.287C157.518 139.496 158.285 140.492 159.449 141.273C160.614 142.054 161.823 142.371 163.084 142.239C164.344 142.106 165.339 141.487 166.077 140.381C166.814 139.275 166.998 138.118 166.637 136.902C166.276 135.685 165.509 134.697 164.344 133.916C163.18 133.134 161.963 132.818 160.71 132.95C159.449 133.083 158.454 133.702 157.717 134.808C156.987 135.914 156.795 137.071 157.157 138.287Z" fill="white"/>
<path d="M148.274 139.5L152.167 142.943L151.503 143.591L158.344 153.241L151.805 159.699L143.608 151.391L142.945 152.04L139.517 148.14L140.954 146.724L143.136 148.936L149.019 143.127L146.837 140.915L148.274 139.5ZM149.852 145.221L145.23 149.784L151.975 156.617L155.543 153.094L149.852 145.221Z" fill="white"/>
<path d="M137.721 153.406L145.189 164.951L137.264 170.074L136.136 168.334L142.137 164.449L135.797 154.645L137.721 153.406Z" fill="white"/>
<path d="M124.627 163.279C126.293 164.12 127.479 165.454 128.187 167.282C128.895 169.111 128.91 170.902 128.239 172.642C127.568 174.381 126.3 175.613 124.427 176.335C122.562 177.057 120.793 176.998 119.127 176.158C117.461 175.318 116.274 173.983 115.566 172.155C114.859 170.327 114.844 168.536 115.515 166.796C116.186 165.056 117.454 163.825 119.326 163.102C121.191 162.38 122.953 162.439 124.627 163.279ZM117.601 167.548C117.196 168.749 117.247 170.003 117.749 171.307C118.25 172.612 119.061 173.578 120.159 174.19C121.258 174.802 122.437 174.875 123.676 174.396C124.914 173.917 125.732 173.077 126.138 171.882C126.543 170.681 126.492 169.428 125.99 168.123C125.489 166.818 124.678 165.852 123.58 165.24C122.474 164.621 121.302 164.555 120.063 165.034C118.832 165.513 118.007 166.353 117.601 167.548Z" fill="white"/>
<path d="M105.143 167.301L107.023 178.823L111.785 178.049L112.117 180.098L100.322 182.015L99.9902 179.966L104.752 179.192L102.88 167.669L105.143 167.301Z" fill="white"/>
<path d="M92.8935 170.484C94.0878 171.914 94.648 173.617 94.5596 175.578C94.4785 177.539 93.7781 179.183 92.466 180.51C91.1538 181.837 89.5025 182.456 87.4973 182.375C85.4922 182.294 83.8999 181.535 82.7056 180.097C81.5114 178.66 80.9511 176.964 81.0396 175.003C81.1207 173.042 81.821 171.398 83.1332 170.071C84.4454 168.744 86.0967 168.125 88.1018 168.206C90.107 168.287 91.6993 169.047 92.8935 170.484ZM84.7476 171.605C83.8999 172.541 83.4428 173.713 83.3838 175.106C83.3248 176.507 83.6787 177.709 84.4454 178.711C85.212 179.714 86.2589 180.245 87.5858 180.303C88.9127 180.362 90.0038 179.92 90.8515 178.984C91.6993 178.048 92.1563 176.876 92.2153 175.482C92.2743 174.082 91.9204 172.88 91.1538 171.877C90.3871 170.867 89.3403 170.344 88.0134 170.285C86.6864 170.226 85.6028 170.661 84.7476 171.605Z" fill="white"/>
<path d="M78.1317 167.604L74.7628 180.932L68.998 179.472C67.8553 179.185 66.9781 178.639 66.3883 177.843C65.7986 177.047 65.6216 176.155 65.8723 175.167C66.1745 173.988 66.897 173.206 68.0396 172.815C67.4941 172.38 67.1034 171.835 66.8749 171.186C66.6463 170.538 66.6242 169.837 66.8159 169.078C67.1108 167.913 67.7742 167.051 68.8063 166.49C69.8384 165.923 70.9884 165.805 72.2637 166.122L78.1317 167.604ZM73.8634 175.13L70.4281 174.26C69.8457 174.113 69.3518 174.135 68.9316 174.334C68.5188 174.526 68.246 174.88 68.1133 175.396C67.988 175.904 68.0544 176.347 68.3271 176.715C68.5999 177.084 69.0274 177.342 69.6098 177.489L73.0451 178.359L73.8634 175.13ZM75.4041 169.048L71.9688 168.179C70.3986 167.78 69.4403 168.26 69.1012 169.623C68.7547 170.98 69.3739 171.857 70.9368 172.255L74.372 173.125L75.4041 169.048Z" fill="white"/>
<path d="M62.6462 163.234L56.616 175.589L54.5593 174.587L57.0878 169.419L49.2958 172.014L46.5977 170.694L55.1195 167.849L52.0676 158.066L54.7657 159.386L57.567 168.439L60.5968 162.239L62.6462 163.234Z" fill="white"/>
<path d="M45.8573 158.806C44.9579 159.971 43.8448 160.524 42.5179 160.465C41.1983 160.406 39.7534 159.764 38.1832 158.555L35.9864 156.853L35.6178 157.324C35.028 158.084 34.8143 158.821 34.9764 159.536C35.1386 160.251 35.603 160.907 36.3845 161.504C36.989 161.969 37.6524 162.219 38.3822 162.241C39.1121 162.264 39.7829 162.064 40.3874 161.637L41.648 163.303C40.6823 164.047 39.5986 164.401 38.4117 164.364C37.2249 164.328 36.1265 163.915 35.1165 163.141C33.7527 162.079 32.9639 160.914 32.7501 159.632C32.5364 158.349 32.9713 157.015 34.0476 155.621L39.3627 148.766L40.8297 149.901L39.9008 151.633C40.638 151.397 41.4784 151.397 42.4294 151.626C43.3804 151.854 44.2576 152.282 45.0611 152.909C46.049 153.675 46.6314 154.597 46.8083 155.658C46.9705 156.72 46.6535 157.767 45.8573 158.806ZM37.4534 154.951L37.188 155.297L39.5617 157.133C40.4685 157.833 41.3162 158.202 42.105 158.238C42.8938 158.275 43.5278 157.98 44.007 157.369C44.4051 156.853 44.5599 156.322 44.464 155.776C44.3682 155.231 44.0512 154.744 43.5057 154.324C42.6284 153.646 41.6111 153.314 40.4464 153.329C39.2816 153.344 38.279 153.882 37.4534 154.951Z" fill="white"/>
<path d="M26.0403 133.249L13.9873 139.862L12.8889 137.849L17.9386 135.085L10.0728 132.711L8.62793 130.08L17.2309 132.667L20.3787 122.914L21.8236 125.546L18.8969 134.554L24.9492 131.237L26.0403 133.249Z" fill="white"/>
<path d="M12.5378 102.179C11.2772 103.499 9.66278 104.244 7.68712 104.421C5.71146 104.597 3.98645 104.148 2.51208 103.071C1.0377 101.995 0.212054 100.477 0.0351296 98.5009C-0.215514 95.7291 0.875522 93.6871 3.29349 92.3749L4.28869 94.2842C2.66688 95.1615 1.93707 96.5031 2.09925 98.3166C2.2172 99.6214 2.77009 100.609 3.75792 101.273C4.74575 101.944 5.98422 102.209 7.47334 102.076C8.96245 101.944 10.1272 101.464 10.9823 100.624C11.8375 99.791 12.2061 98.7221 12.0955 97.4173C11.9333 95.6038 10.975 94.4095 9.22784 93.8419L9.86919 91.7852C12.4862 92.6477 13.9163 94.4611 14.1596 97.233C14.3439 99.216 13.7984 100.86 12.5378 102.179Z" fill="white"/>
<path d="M6.61788 87.5207C4.61274 87.2921 3.00567 86.496 1.79668 85.1396C0.5877 83.7831 0.0937849 82.1318 0.322313 80.1783C0.55084 78.1879 1.35437 76.684 2.73291 75.6667C4.11145 74.6494 5.748 74.244 7.64994 74.4577L8.60091 74.5683L7.37718 85.2428C8.74098 85.3239 9.87624 85.0364 10.783 84.3729C11.6897 83.7094 12.2131 82.7732 12.3532 81.5568C12.5743 79.6033 11.8445 78.0405 10.149 76.8536L11.3064 75.1433C13.7022 76.7578 14.7417 78.9693 14.4173 81.7854C14.1962 83.7168 13.3484 85.2133 11.874 86.2675C10.3923 87.3364 8.63777 87.7492 6.61788 87.5207ZM5.33518 84.8447L6.26403 76.743C5.15825 76.8167 4.26626 77.1706 3.58805 77.8119C2.90984 78.4459 2.51176 79.3158 2.38643 80.4216C2.26111 81.4905 2.46015 82.4046 2.97618 83.1639C3.49221 83.9232 4.27363 84.4835 5.33518 84.8447Z" fill="white"/>
<path d="M21.155 73.2463L2.83594 67.1572L3.55838 64.9825L5.29077 65.5575C4.85583 64.953 4.58307 64.2305 4.45775 63.3975C4.33243 62.5645 4.40614 61.7389 4.6789 60.928C5.29814 59.0629 6.38918 57.8023 7.95938 57.1462C9.52959 56.4901 11.3431 56.5048 13.3924 57.183C15.4492 57.8686 16.9015 58.9376 17.7713 60.4046C18.6338 61.8716 18.7592 63.5376 18.1399 65.3953C17.8672 66.2209 17.4396 66.936 16.8572 67.5258C16.2748 68.1155 15.6409 68.5283 14.9553 68.7569L21.8922 71.0643L21.155 73.2463ZM15.7514 61.6357C15.1175 60.6331 14.0854 59.8885 12.6553 59.4093C11.2251 58.9302 9.94979 58.9081 8.84401 59.3356C7.73823 59.7632 6.97892 60.5815 6.58084 61.7905C6.18276 62.9994 6.29334 64.1052 6.92732 65.1078C7.5613 66.1104 8.59336 66.8549 10.0235 67.3267C11.4536 67.8059 12.729 67.828 13.8348 67.4004C14.9479 66.9729 15.6998 66.1546 16.1053 64.9456C16.496 63.7514 16.3854 62.6456 15.7514 61.6357Z" fill="white"/>
<path d="M28.4192 55.4871L23.797 52.7963C22.8387 54.4476 21.4601 55.4355 19.6688 55.7746C17.8774 56.1063 16.1303 55.7819 14.4348 54.7941C12.7392 53.8063 11.5892 52.4499 10.9995 50.7248C10.4024 48.9998 10.5866 47.3117 11.545 45.6604L7.1145 43.0802L8.26451 41.0972L12.695 43.6773C13.6533 42.026 15.0319 41.0382 16.8232 40.6991C18.6146 40.36 20.3617 40.6917 22.0573 41.6796C23.7528 42.6674 24.9028 44.0238 25.4999 45.7488C26.097 47.4739 25.9128 49.162 24.9544 50.8133L29.5766 53.504L28.4192 55.4871ZM21.9983 51.779L22.013 51.7569L13.3364 46.7072L13.3216 46.7293C12.7097 47.8203 12.6287 48.9335 13.0857 50.0614C13.5428 51.1524 14.3905 52.0518 15.6143 52.7669C16.8232 53.4746 18.0322 53.7621 19.2412 53.6441C20.4428 53.4893 21.3643 52.8627 21.9983 51.779ZM23.163 49.7739L23.1778 49.7518C23.8044 48.646 23.8781 47.5402 23.3989 46.4418C22.9493 45.336 22.1089 44.4293 20.8851 43.7142C19.6614 42.9991 18.4524 42.719 17.2729 42.8738C16.0861 42.9991 15.1572 43.611 14.5011 44.702L14.4864 44.7241L23.163 49.7739Z" fill="white"/>
<path d="M29.6076 43.2269L19.3828 34.0415L20.9162 32.3386L28.605 39.2461L25.6784 27.0383L27.3371 25.1953L37.5618 34.3807L36.0285 36.0836L28.3396 29.1761L31.2663 41.3839L29.6076 43.2269Z" fill="white"/>
<path d="M40.9211 31.3895L32.7751 20.317L34.6181 18.9606L37.8175 23.31L43.0884 19.4324L39.889 15.083L41.732 13.7266L49.8779 24.7991L48.0349 26.1555L44.3195 21.1058L39.0486 24.9834L42.764 30.0331L40.9211 31.3895Z" fill="white"/>
<path d="M54.6663 22.0573L48.9531 9.55464L57.534 5.63281L58.3965 7.52001L51.8945 10.4909L56.7452 21.1064L54.6663 22.0573Z" fill="white"/>
<path d="M71.9629 21.1351L73.1424 14.213L64.5173 3.01509L67.0164 2.44746L73.7248 11.2495L75.4793 0.538146L77.9046 0L74.1966 20.6338L71.9629 21.1351Z" fill="white"/>
</svg>
