<svg width="156" height="156" viewBox="0 0 156 156" fill="none" xmlns="http://www.w3.org/2000/svg">
<path d="M106.553 32.551L107.287 31.5329L112.1 34.9975L111.366 36.0157L106.553 32.551Z" fill="#5458F7"/>
<path d="M117.396 49.1796L127.632 43.1314L131.815 50.2119L121.579 56.26L120.819 54.9752L129.828 49.6509L127.164 45.1402L118.155 50.4644L117.396 49.1796Z" fill="#5458F7"/>
<path d="M123.747 58.4974C124.31 57.4815 125.168 56.773 126.327 56.3803C127.485 55.9877 128.596 56.018 129.665 56.4798C130.734 56.9417 131.466 57.76 131.868 58.9396C132.269 60.1191 132.188 61.2168 131.629 62.2349C131.069 63.253 130.207 63.9593 129.048 64.3519C127.89 64.7446 126.779 64.7143 125.71 64.2524C124.641 63.7906 123.909 62.9722 123.508 61.7927C123.102 60.6109 123.183 59.5132 123.747 58.4974ZM126.232 62.9688C126.966 63.2485 127.75 63.2493 128.575 62.9666C129.399 62.6839 130.018 62.2081 130.432 61.5352C130.841 60.86 130.915 60.1341 130.648 59.3554C130.384 58.5726 129.88 58.0391 129.146 57.7595C128.408 57.4775 127.628 57.479 126.803 57.7617C125.978 58.0443 125.36 58.5202 124.946 59.1931C124.536 59.8683 124.463 60.5942 124.729 61.3729C124.994 62.1556 125.497 62.6891 126.232 62.9688Z" fill="#5458F7"/>
<path d="M125.311 66.9744L126.589 66.815C126.663 67.387 126.832 67.7919 127.111 68.0263C127.385 68.2583 127.802 68.3713 128.36 68.3588L134.095 68.2063L134.84 74.1551L126.347 75.2151L126.171 73.8L133.385 72.8993L132.966 69.5426L127.998 69.6498C126.434 69.6978 125.541 68.802 125.311 66.9744Z" fill="#5458F7"/>
<path d="M126.368 77.8938L134.9 78.5885L134.786 80.0112L131.434 79.7403L131.103 83.8035L134.454 84.0745L134.34 85.4972L125.808 84.8026L125.922 83.3798L129.818 83.6992L130.149 79.636L126.254 79.3166L126.368 77.8938Z" fill="#5458F7"/>
<path d="M127.624 88.4386C128.501 88.6999 129.075 89.2211 129.342 89.9998C129.606 90.7826 129.561 91.763 129.214 92.9459L128.723 94.6077L129.081 94.7131C129.655 94.8846 130.131 94.8406 130.51 94.5872C130.889 94.3339 131.162 93.9139 131.337 93.3256C131.473 92.8688 131.462 92.428 131.312 91.9976C131.16 91.5711 130.893 91.2263 130.508 90.9734L131.188 89.8656C131.84 90.2618 132.289 90.8065 132.538 91.506C132.787 92.2056 132.795 92.9362 132.57 93.6963C132.262 94.7272 131.761 95.4506 131.069 95.8623C130.374 96.2781 129.499 96.3254 128.443 96.0146L123.266 94.4804L123.596 93.3727L124.81 93.5201C124.507 93.1444 124.315 92.658 124.233 92.0547C124.152 91.4514 124.204 90.8456 124.383 90.2391C124.608 89.4893 125.006 88.945 125.586 88.6006C126.166 88.2562 126.841 88.2054 127.624 88.4386ZM127.282 94.1857L127.545 94.2628L128.078 92.4719C128.28 91.7886 128.304 91.214 128.144 90.746C127.988 90.2802 127.675 89.978 127.208 89.8415C126.818 89.7281 126.472 89.7572 126.18 89.9334C125.886 90.1135 125.675 90.4056 125.554 90.818C125.359 91.4791 125.398 92.1478 125.669 92.8178C125.938 93.4918 126.477 93.9451 127.282 94.1857Z" fill="#5458F7"/>
<path d="M122.117 97.2461L124.48 101.176C125.318 100.355 126.249 100.218 127.267 100.761C127.892 101.1 128.279 101.588 128.422 102.232C128.566 102.876 128.446 103.554 128.058 104.274L126.515 107.147L118.972 103.096L119.649 101.838L123.032 103.653L123.781 102.262L121.436 98.5121L122.117 97.2461ZM125.058 102.61L124.164 104.273L126.05 105.285L126.944 103.622C127.36 102.844 127.257 102.287 126.631 101.948C125.999 101.61 125.476 101.829 125.058 102.61Z" fill="#5458F7"/>
<path d="M110.514 113.287L115.811 120.014L110.366 124.301L105.068 117.575L106.189 116.694L110.689 122.405L113.89 119.882L109.39 114.172L110.514 113.287Z" fill="#5458F7"/>
<path d="M102.63 120.418C103.712 120.84 104.525 121.599 105.069 122.697C105.614 123.794 105.726 124.897 105.409 126.018C105.092 127.139 104.375 127.971 103.26 128.526C102.146 129.082 101.044 129.147 99.9619 128.725C98.8801 128.304 98.0671 127.544 97.5228 126.447C96.9784 125.35 96.8663 124.247 97.1831 123.126C97.4999 122.005 98.2173 121.173 99.3318 120.617C100.453 120.06 101.551 119.993 102.63 120.418ZM98.5243 123.474C98.3436 124.239 98.4482 125.014 98.834 125.798C99.2199 126.582 99.774 127.128 100.496 127.448C101.217 127.769 101.947 127.744 102.688 127.376C103.43 127.008 103.889 126.441 104.072 125.672C104.255 124.903 104.148 124.132 103.762 123.348C103.376 122.564 102.818 122.015 102.101 121.697C101.379 121.377 100.649 121.402 99.9078 121.77C99.1703 122.14 98.7072 122.705 98.5243 123.474Z" fill="#5458F7"/>
<path d="M93.352 121.37L94.3832 124.437L93.8236 124.581L94.5177 131.915L88.9818 133.369L87.1386 126.338L86.5789 126.482L85.9404 123.312L87.1561 122.995L87.6467 124.866L92.6269 123.559L92.1363 121.687L93.352 121.37ZM92.426 124.948L88.5134 125.974L90.0308 131.759L93.0515 130.965L92.426 124.948Z" fill="#5458F7"/>
<path d="M83.3432 125.594L83.7869 134.145L77.9175 134.448L77.8493 133.159L82.2953 132.927L81.9199 125.665L83.3432 125.594Z" fill="#5458F7"/>
<path d="M73.207 126.858C73.8452 127.829 74.0712 128.918 73.8851 130.124C73.699 131.331 73.1504 132.303 72.2477 133.033C71.345 133.764 70.2781 134.034 69.043 133.842C67.8118 133.653 66.8752 133.071 66.2371 132.1C65.5989 131.129 65.3729 130.04 65.559 128.833C65.7451 127.626 66.2937 126.655 67.1964 125.924C68.0991 125.194 69.166 124.923 70.4011 125.115C71.6323 125.305 72.5649 125.884 73.207 126.858ZM68.0888 126.978C67.4966 127.501 67.1351 128.194 67.0002 129.054C66.8653 129.914 67.003 130.687 67.4057 131.358C67.8085 132.03 68.4222 132.436 69.2395 132.562C70.0569 132.689 70.7597 132.489 71.3496 131.971C71.9418 131.448 72.3034 130.756 72.4382 129.895C72.5731 129.035 72.4355 128.262 72.0327 127.591C71.6283 126.913 71.0162 126.513 70.1989 126.387C69.3855 126.263 68.6787 126.46 68.0888 126.978Z" fill="#5458F7"/>
<path d="M61.4415 122.976L58.8759 129.779L61.6869 130.841L61.2291 132.051L54.2672 129.42L54.7249 128.211L57.5359 129.273L60.1054 122.472L61.4415 122.976Z" fill="#5458F7"/>
<path d="M53.8376 120.888C54.0379 122.031 53.8111 123.124 53.1541 124.155C52.501 125.188 51.6122 125.858 50.4917 126.167C49.3711 126.475 48.2874 126.296 47.2303 125.63C46.1732 124.963 45.5497 124.058 45.3518 122.911C45.1538 121.764 45.3783 120.675 46.0353 119.644C46.6884 118.611 47.5772 117.941 48.6977 117.633C49.8183 117.324 50.902 117.503 51.9591 118.17C53.0162 118.837 53.6397 119.741 53.8376 120.888ZM49.0927 118.962C48.3442 119.204 47.7333 119.694 47.2686 120.428C46.8015 121.166 46.6192 121.924 46.7214 122.704C46.8237 123.483 47.2238 124.095 47.9217 124.539C48.6196 124.983 49.3459 125.083 50.0944 124.841C50.8429 124.599 51.4538 124.109 51.9186 123.375C52.3856 122.637 52.568 121.879 52.4657 121.1C52.3657 120.316 51.9633 119.708 51.2654 119.264C50.5675 118.82 49.8475 118.718 49.0927 118.962Z" fill="#5458F7"/>
<path d="M46.7682 114.744L40.8084 120.892L38.1504 118.312C37.623 117.802 37.319 117.235 37.248 116.622C37.1771 116.009 37.3588 115.473 37.801 115.018C38.3306 114.475 38.9634 114.278 39.7015 114.422C39.5422 114.017 39.5008 113.602 39.579 113.18C39.6573 112.759 39.8629 112.374 40.2023 112.024C40.7234 111.487 41.3495 111.228 42.0806 111.246C42.8141 111.26 43.4714 111.554 44.0613 112.121L46.7682 114.744ZM42.1257 117.481L40.5417 115.944C40.2732 115.683 39.9998 115.542 39.7111 115.518C39.4287 115.494 39.1716 115.6 38.9396 115.837C38.7139 116.073 38.6123 116.332 38.645 116.616C38.6777 116.9 38.8283 117.172 39.0968 117.432L40.6807 118.969L42.1257 117.481ZM44.847 114.677L43.2631 113.14C42.5392 112.437 41.8731 112.398 41.2663 113.029C40.6578 113.653 40.7195 114.319 41.4393 115.019L43.0232 116.556L44.847 114.677Z" fill="#5458F7"/>
<path d="M39.7636 107.573L32.6698 112.368L31.8711 111.188L34.8416 109.184L29.8296 108.163L28.7833 106.613L34.2671 107.725L35.6594 101.496L36.7057 103.047L35.4049 108.804L38.9667 106.399L39.7636 107.573Z" fill="#5458F7"/>
<path d="M32.0811 99.9655C31.2337 100.315 30.4611 100.267 29.7632 99.8231C29.0693 99.3813 28.4887 98.5862 28.0168 97.4457L27.3602 95.844L27.0147 95.9841C26.4604 96.2107 26.116 96.5422 25.9813 96.9785C25.8467 97.4149 25.8935 97.9133 26.1297 98.4784C26.3117 98.9169 26.5919 99.2583 26.979 99.497C27.366 99.7357 27.7899 99.8368 28.2491 99.7938L28.4118 101.085C27.6592 101.187 26.9644 101.041 26.3352 100.652C25.706 100.263 25.2414 99.6994 24.9368 98.9678C24.5306 97.971 24.4667 97.0972 24.7499 96.3385C25.0331 95.5797 25.6824 94.9947 26.6963 94.5771L31.6953 92.5281L32.1344 93.5967L31.0948 94.2431C31.566 94.3449 32.0196 94.606 32.4619 95.0248C32.9041 95.4437 33.2448 95.947 33.4838 96.5349C33.7788 97.2557 33.8068 97.934 33.5724 98.5619C33.3301 99.1853 32.8338 99.6518 32.0811 99.9655ZM28.743 95.2732L28.4921 95.3778L29.203 97.1061C29.4748 97.7658 29.8178 98.2282 30.2321 98.4932C30.6464 98.7582 31.0802 98.796 31.529 98.6146C31.9042 98.4598 32.1527 98.2214 32.2705 97.8972C32.3882 97.573 32.3683 97.2119 32.2044 96.8156C31.9417 96.1769 31.4956 95.6818 30.8624 95.3278C30.2291 94.9739 29.5208 94.9528 28.743 95.2732Z" fill="#5458F7"/>
<path d="M29.3237 80.0123L20.7634 79.8364L20.7959 78.4088L24.3804 78.4857L20.8724 74.7605L20.9103 72.891L24.7498 76.9607L29.4792 72.6746L29.4414 74.5441L25.0626 78.497L29.3601 78.5871L29.3237 80.0123Z" fill="#5458F7"/>
<path d="M31.686 59.053C30.5956 59.3735 29.4929 59.2738 28.3715 58.7554C27.2502 58.237 26.4588 57.4583 25.9975 56.4193C25.5361 55.3802 25.5623 54.304 26.0807 53.1826C26.8067 51.6087 28.03 50.8455 29.7429 50.8885L29.6868 52.2283C28.5388 52.1979 27.728 52.6953 27.2521 53.7245C26.9103 54.4655 26.9018 55.1704 27.2288 55.8355C27.5536 56.5045 28.1396 57.0326 28.9845 57.4236C29.8295 57.8147 30.6071 57.918 31.3298 57.7301C32.0502 57.5462 32.5813 57.0838 32.927 56.3451C33.403 55.3159 33.2568 54.3735 32.4901 53.5243L33.4754 52.6134C34.6199 53.8921 34.8283 55.3153 34.0984 56.887C33.5817 58.0146 32.7765 58.7324 31.686 59.053Z" fill="#5458F7"/>
<path d="M33.0543 49.2959C32.0431 48.5495 31.423 47.6204 31.1919 46.5126C30.9609 45.4048 31.2074 44.3601 31.9377 43.3766C32.6795 42.3733 33.5805 41.8113 34.6407 41.6905C35.7008 41.5698 36.7102 41.8594 37.6703 42.5658L38.1492 42.9209L34.172 48.3023C34.8829 48.7698 35.585 48.9674 36.2805 48.891C36.9761 48.8146 37.5495 48.4719 38.0031 47.8589C38.7294 46.8732 38.8211 45.8029 38.2747 44.6355L39.4309 44.0719C40.2224 45.6878 40.0962 47.2045 39.0462 48.6236C38.3267 49.5974 37.4041 50.1417 36.2808 50.2526C35.1488 50.3692 34.0736 50.0468 33.0543 49.2959ZM33.1935 47.4529L36.2122 43.3686C35.5924 43.0648 35.001 42.9787 34.4357 43.1141C33.8726 43.2456 33.3875 43.5914 32.9762 44.1493C32.5765 44.6873 32.3999 45.2426 32.4425 45.8127C32.4851 46.3829 32.7327 46.9281 33.1935 47.4529Z" fill="#5458F7"/>
<path d="M45.3291 46.1073L37.3333 37.1285L38.399 36.1792L39.1554 37.0279C39.1085 36.5664 39.1857 36.0917 39.3769 35.6032C39.5681 35.1146 39.8644 34.6919 40.2636 34.3389C41.1774 33.5247 42.158 33.1833 43.2093 33.317C44.2607 33.4508 45.235 34.0222 46.1304 35.0251C47.0275 36.0342 47.4792 37.0624 47.4929 38.1245C47.5026 39.1843 47.0526 40.1225 46.1412 40.9328C45.7374 41.2937 45.2844 41.5468 44.7868 41.6842C44.2893 41.8215 43.8188 41.8474 43.3777 41.7577L46.405 45.1585L45.3291 46.1073ZM46.0202 38.1614C45.9895 37.4232 45.6638 36.7007 45.0407 35.9977C44.4177 35.2947 43.7362 34.8865 43.0065 34.7737C42.2768 34.6608 41.6127 34.8666 41.0222 35.3954C40.4317 35.9243 40.1478 36.5555 40.1785 37.2936C40.2091 38.0318 40.5348 38.7543 41.1602 39.4534C41.7832 40.1564 42.4647 40.5646 43.1944 40.6774C43.9281 40.7925 44.5882 40.5844 45.1827 40.0579C45.7646 39.5347 46.0485 38.9035 46.0202 38.1614Z" fill="#5458F7"/>
<path d="M54.7667 38.7766L53.1079 35.8881C52.0776 36.4816 51.0266 36.5864 49.9543 36.2129C48.8843 35.8353 48.0421 35.1174 47.4339 34.0574C46.8256 32.9973 46.6264 31.9079 46.8441 30.7935C47.0578 29.6769 47.6818 28.823 48.7121 28.2295L47.1225 25.4602L48.3594 24.7472L49.949 27.5165C50.9794 26.923 52.0304 26.8181 53.1026 27.1917C54.1749 27.5653 55.0148 28.2872 55.6231 29.3472C56.2313 30.4072 56.4306 31.4967 56.2169 32.6133C56.0032 33.7299 55.3791 34.5838 54.3488 35.1774L56.0075 38.0659L54.7667 38.7766ZM52.4531 34.7801L52.468 34.7727L49.3538 29.3511L49.3389 29.3585C48.6697 29.7572 48.28 30.3329 48.1763 31.0837C48.084 31.8146 48.2621 32.5634 48.7004 33.3296C49.1331 34.0873 49.6963 34.6181 50.3855 34.9301C51.0822 35.2199 51.7742 35.168 52.4531 34.7801ZM53.7049 34.0597L53.7197 34.0524C54.4015 33.6502 54.7849 33.0763 54.8675 32.3345C54.9684 31.5979 54.7965 30.8474 54.3582 30.0812C53.9199 29.315 53.3544 28.7881 52.6696 28.5052C51.9901 28.2041 51.2986 28.2457 50.6055 28.6307L50.5906 28.6381L53.7049 34.0597Z" fill="#5458F7"/>
<path d="M59.2208 32.5307L56.556 24.3959L57.9127 23.9532L59.9166 30.0706L62.1301 22.572L63.598 22.0926L66.2628 30.2275L64.906 30.6702L62.9022 24.5528L60.6887 32.0514L59.2208 32.5307Z" fill="#5458F7"/>
<path d="M69.0062 29.6546L68.0499 21.1471L69.4661 20.9876L69.8415 24.3293L73.8913 23.8741L73.5159 20.5324L74.9321 20.3729L75.8884 28.8804L74.4722 29.0399L74.0359 25.1599L69.9861 25.615L70.4224 29.4951L69.0062 29.6546Z" fill="#5458F7"/>
<path d="M79.3241 28.8904L80.1252 20.3668L85.9753 20.9162L85.8544 22.2029L81.4219 21.7861L80.7416 29.023L79.3241 28.8904Z" fill="#5458F7"/>
<path d="M88.9478 33.7681L91.7353 30.3983L90.5592 21.6743L92.0845 22.1444L92.9704 28.9797L97.2456 23.7434L98.7219 24.2066L90.3092 34.1916L88.9478 33.7681Z" fill="#5458F7"/>
<g clip-path="url(#clip0)">
<path d="M85.4669 84.9491C86.3227 84.7322 87.1743 84.4664 87.9999 84.1587L88.0687 84.1329C94.7844 81.6295 99.9576 76.347 102.262 69.6398L102.728 68.2827L101.37 67.7449C95.4911 65.4159 89.0606 65.3667 83.3185 67.5332C82.3084 61.4797 79.0365 55.9434 74.07 52.0289L72.9231 51.125L71.9838 52.2097C67.3408 57.5704 65.3704 64.6968 66.5779 71.7605L66.5906 71.8349C66.7389 72.7024 66.9367 73.5724 67.1788 74.4213L67.6352 76.4494L55.8503 83.4398L60.6859 87.0313L60.3437 92.8524L70.6004 89.6259L72.9609 100.116L77.8231 96.8967L83.3571 99.2747L83.4839 85.573L85.4669 84.9491ZM69.1086 71.4785L69.0959 71.4041C68.18 66.0468 69.3039 60.6506 72.1901 56.205L73.6065 69.4656L76.1458 69.2643L74.7267 55.9779C78.1053 59.4389 80.2763 63.859 80.9067 68.5959C80.8078 68.646 80.7083 68.6946 80.6101 68.7461C79.8333 69.1532 79.0719 69.6074 78.3463 70.0961L69.9307 75.0879L69.6634 73.9001L69.6451 73.829C69.4238 73.0575 69.2431 72.2664 69.1086 71.4785ZM63.1128 89.3205L63.2318 87.2961L82.8716 78.5322L81.7704 76.2353L62.1372 84.9963L60.4035 83.7087L79.7339 72.2427L79.7954 72.2036C80.4542 71.7584 81.1465 71.3449 81.8528 70.9746C86.6926 68.4374 92.3032 67.8169 97.6257 69.1602L85.4235 74.6051L86.5246 76.9022L98.7032 71.4677C96.3082 76.1961 92.2061 79.8779 87.1125 81.7766L87.0438 81.8024C86.2938 82.0819 85.5189 82.3231 84.7407 82.5191L84.705 82.5281L63.1128 89.3205ZM74.6245 95.9475L73.03 88.8615L75.5921 88.0556L76.3155 94.828L74.6245 95.9475ZM80.8381 95.4723L78.854 94.6196L78.0696 87.2762L80.9222 86.3789L80.8381 95.4723Z" fill="#5458F7"/>
</g>
<defs>
<clipPath id="clip0">
<rect width="43.6875" height="42.4393" fill="white" transform="translate(68.8945 48.8047) rotate(29.9277)"/>
</clipPath>
</defs>
</svg>
