<svg width="1440" height="2056" viewBox="0 0 1440 2056" fill="none" xmlns="http://www.w3.org/2000/svg">
<path d="M1148.79 2777.92C1486.33 2678.79 1910.25 2548.25 2420.56 2386.33L2549 2107.11C2263.12 2205.04 2028.24 2284 1844.34 2344.01C1661.23 2402.65 1461.88 2461.05 1246.29 2519.2C1030.7 2577.35 814.577 2626.97 597.914 2668.06C409.062 2705.13 286.826 2727.69 231.206 2735.75C176.377 2742.45 128.485 2733.97 87.5318 2710.33C42.4829 2684.32 33.7969 2647.35 61.4738 2599.41C82.8245 2562.43 123.828 2527.66 184.484 2495.11C245.14 2462.56 385.46 2392.92 605.443 2286.17C687.084 2245.65 764.196 2209.81 836.78 2178.67C909.364 2147.53 1000.38 2109.68 1109.83 2065.13C1221.44 2019.99 1332.47 1972.7 1442.93 1923.25C1555.54 1873.22 1641.78 1832.61 1701.65 1801.43C1861.19 1723.71 1982.32 1655.76 2065.05 1597.6C2148.56 1538.07 2232.62 1435.03 2317.24 1288.48C2355.98 1221.37 2363.18 1161.61 2338.84 1109.2C2316.64 1056.21 2261.86 1004.5 2174.5 954.056C2057.1 886.275 1895.25 822.966 1688.96 764.129C1482.67 705.291 1270.09 668.387 1051.21 653.417C832.334 638.447 642.121 657.374 480.571 710.199C422.146 729.427 347.081 766.441 255.377 821.242C163.099 873.884 80.8794 929.595 8.7198 988.375C-62.6491 1045.78 -107.823 1090.93 -126.801 1123.8C-140.244 1147.08 -141.759 1171.77 -131.346 1197.87C-122.298 1223.19 -104.123 1243.72 -76.8203 1259.49C-30.4063 1286.28 62.5007 1309.79 201.901 1330.01C343.457 1349.65 494.285 1356.37 654.387 1350.19C869.101 1340.85 1041.71 1338.23 1172.2 1342.35C1303.48 1345.1 1405.88 1352.17 1479.39 1363.57C1555.05 1374.38 1605.85 1387.27 1631.79 1402.25C1653.63 1414.86 1658.62 1431.44 1646.76 1451.98C1630.15 1480.74 1551.53 1523.92 1410.89 1581.51C1270.25 1639.11 1021.67 1733.91 665.15 1865.92C446.107 1945.81 254.658 2025.2 90.8026 2104.09C-73.0529 2182.98 -205.29 2259.12 -305.909 2332.51C-405.737 2404.54 -477.002 2477.53 -519.704 2551.49C-586.128 2666.54 -610.908 2770.94 -594.044 2864.68C-577.18 2958.42 -528.477 3028.54 -447.935 3075.04C-396.06 3104.99 -341.56 3120.94 -284.433 3122.87C-226.515 3123.44 -163.853 3115.79 -96.4465 3099.92C-28.249 3082.68 47.0988 3064.09 129.597 3044.15C472.882 2966.59 812.612 2877.85 1148.79 2777.92Z" fill="#15239D"/>
</svg>
