<svg width="35" height="35" viewBox="0 0 35 35" fill="none" xmlns="http://www.w3.org/2000/svg">
<g clip-path="url(#clip0)">
<path d="M17.5012 21.8071C19.8814 21.8071 21.811 19.8775 21.811 17.4973C21.811 15.1171 19.8814 13.1875 17.5012 13.1875C15.121 13.1875 13.1914 15.1171 13.1914 17.4973C13.1914 19.8775 15.121 21.8071 17.5012 21.8071Z" fill="#15239D"/>
<path d="M34.7829 16.9518C34.4672 16.6178 26.9584 8.74609 17.4977 8.74609C8.03791 8.74609 0.530163 16.6178 0.215344 16.9518C-0.0717814 17.2585 -0.0717814 17.7367 0.215344 18.042C0.531412 18.3759 8.03937 26.2512 17.4977 26.2512C26.9584 26.2512 34.4695 18.3759 34.7829 18.042C35.0721 17.7367 35.0721 17.256 34.7829 16.9518ZM17.4997 24.1603C13.8271 24.1603 10.8392 21.1718 10.8392 17.4962C10.8392 13.8236 13.8271 10.8334 17.4997 10.8334C21.1722 10.8334 24.1642 13.8225 24.1642 17.4962C24.1634 21.1698 21.1722 24.1603 17.4997 24.1603ZM12.2182 11.2065C10.4182 12.7213 9.24721 14.9635 9.24721 17.4962C9.24721 20.0279 10.4182 22.2704 12.2182 23.7878C7.23775 22.186 3.32667 18.8157 1.92873 17.4962C3.32688 16.1783 7.23879 12.8075 12.2182 11.2065ZM22.7838 23.7853C24.5825 22.2695 25.755 20.0267 25.755 17.4962C25.755 14.9658 24.5836 12.7246 22.7823 11.2088C27.7626 12.8106 31.6707 16.1768 33.0695 17.4962C31.6705 18.8144 27.7624 22.1812 22.7838 23.7853Z" fill="#15239D"/>
</g>
<defs>
<clipPath id="clip0">
<rect width="35" height="35" fill="white"/>
</clipPath>
</defs>
</svg>
