<svg width="37" height="37" viewBox="0 0 37 37" fill="none" xmlns="http://www.w3.org/2000/svg">
<path fill-rule="evenodd" clip-rule="evenodd" d="M6.16536 3.08203H30.832C32.5349 3.08203 33.9154 4.46249 33.9154 6.16536V30.832C33.9154 32.5349 32.5349 33.9154 30.832 33.9154H6.16536C4.46249 33.9154 3.08203 32.5349 3.08203 30.832V6.16536C3.08203 4.46249 4.46249 3.08203 6.16536 3.08203ZM6.16547 6.16535V30.832H30.8321V6.16535H6.16547ZM17.1623 18.5055H20.0405V27.7487H23.1238V18.5055H26.1801V15.4222H23.1238V13.8737C23.1238 13.0223 23.814 12.332 24.6655 12.332H26.2072V9.24871H24.6655C22.1112 9.24871 20.0405 11.3194 20.0405 13.8737V15.4222H17.1623V18.5055Z" fill="white"/>
</svg>
