<svg width="39" height="37" viewBox="0 0 39 37" fill="none" xmlns="http://www.w3.org/2000/svg">
<path fill-rule="evenodd" clip-rule="evenodd" d="M26 3.08203H13C7.61522 3.08203 3.25 7.2234 3.25 12.332V24.6654C3.25 29.774 7.61522 33.9154 13 33.9154H26C31.3848 33.9154 35.75 29.774 35.75 24.6654V12.332C35.75 7.2234 31.3848 3.08203 26 3.08203ZM6.49988 12.332C6.49988 8.92626 9.41003 6.16535 12.9999 6.16535H25.9999C29.5897 6.16535 32.4999 8.92626 32.4999 12.332V24.6653C32.4999 28.0711 29.5897 30.832 25.9999 30.832H12.9999C9.41003 30.832 6.49988 28.0711 6.49988 24.6653V12.332ZM19.4999 26.207C15.0126 26.207 11.3749 22.7559 11.3749 18.4987C11.3749 14.2415 15.0126 10.7903 19.4999 10.7903C23.9872 10.7903 27.6249 14.2415 27.6249 18.4987C27.6249 22.7559 23.9872 26.207 19.4999 26.207ZM19.5001 23.1237C22.1925 23.1237 24.3751 21.053 24.3751 18.4987C24.3751 15.9444 22.1925 13.8737 19.5001 13.8737C16.8077 13.8737 14.6251 15.9444 14.6251 18.4987C14.6251 21.053 16.8077 23.1237 19.5001 23.1237ZM29.2499 10.7904C29.2499 11.6418 28.5223 12.332 27.6249 12.332C26.7274 12.332 25.9999 11.6418 25.9999 10.7904C25.9999 9.93894 26.7274 9.24871 27.6249 9.24871C28.5223 9.24871 29.2499 9.93894 29.2499 10.7904Z" fill="white"/>
</svg>
