<svg width="120" height="131" viewBox="0 0 120 131" fill="none" xmlns="http://www.w3.org/2000/svg">
<path d="M52.5106 61.2645C56.4255 61.6068 60.2553 62.0631 64 62.6336C67.7447 63.147 71.2624 63.8315 74.5532 64.6871C77.9007 65.5428 80.9645 66.5981 83.7447 67.853C86.5816 69.108 88.9929 70.6196 90.9787 72.388C93.0213 74.1563 94.6099 76.2384 95.7447 78.6342C96.8794 80.973 97.4468 83.6826 97.4468 86.7629C97.4468 92.3531 95.6879 97.8008 92.1702 103.106C88.7092 108.354 83.9149 113.06 77.7872 117.224C71.6596 121.388 64.4255 124.725 56.0851 127.235C47.7447 129.745 38.695 131 28.9362 131C24.3404 131 20.2269 130.629 16.5957 129.888C13.0213 129.146 9.98582 128.091 7.48936 126.722C5.04965 125.41 3.1773 123.813 1.87234 121.93C0.624114 120.105 0 118.08 0 115.855C0 114.087 0.482269 112.119 1.44681 109.951C2.46809 107.783 3.68794 105.758 5.10638 103.876C6.52482 101.993 8.02837 100.425 9.61702 99.1698C11.2624 97.8578 12.6809 97.2018 13.8723 97.2018C14.8936 97.2018 15.4043 97.5441 15.4043 98.2286C15.4043 98.5138 15.2908 98.8846 15.0638 99.341C14.8369 99.7973 14.5816 100.282 14.2979 100.796C14.0709 101.252 13.844 101.708 13.617 102.165C13.4468 102.621 13.3617 102.992 13.3617 103.277C13.3617 104.247 13.7305 105.245 14.4681 106.272C15.2624 107.241 16.3688 108.154 17.7872 109.01C19.2624 109.865 20.9929 110.578 22.9787 111.149C25.0213 111.662 27.3191 111.919 29.8723 111.919C38.4397 111.919 46.0993 111.006 52.8511 109.181C59.6028 107.356 65.305 105.074 69.9574 102.336C74.6667 99.5976 78.2695 96.6314 80.766 93.437C83.2624 90.1855 84.5106 87.1337 84.5106 84.2815C84.5106 82.0568 83.6879 80.2314 82.0425 78.8054C80.3972 77.3222 77.9858 76.1243 74.8085 75.2116C71.6879 74.2989 67.8582 73.6715 63.3191 73.3292C58.7801 72.9299 53.5886 72.7302 47.7447 72.7302C45.6454 72.7302 43.5745 72.8443 41.5319 73.0725C39.5461 73.3007 37.617 73.5859 35.7447 73.9281C33.7589 74.3275 32.2837 74.6127 31.3191 74.7838C30.4113 74.8979 29.9858 74.9549 30.0426 74.9549C28.9645 74.9549 28.4255 73.9852 28.4255 72.0457C28.4255 70.1062 28.6809 68.1668 29.1915 66.2273C29.7021 64.2308 30.3262 62.4054 31.0638 60.7511C31.8582 59.0398 32.6809 57.5852 33.5319 56.3873C34.4397 55.1324 35.2624 54.2482 36 53.7348C37.1915 52.8792 41.9007 51.7383 50.1277 50.3122C53.4752 49.7418 57.1631 49.0858 61.1915 48.3442C65.2766 47.6027 69.3901 46.747 73.5319 45.7773C77.7305 44.7505 81.8156 43.6096 85.7872 42.3547C89.8156 41.0997 93.4468 39.7022 96.6808 38.162C99.9149 36.6218 102.61 34.9105 104.766 33.0281C106.979 31.1457 108.34 29.0636 108.851 26.7818C108.908 26.4966 108.936 26.2399 108.936 26.0118C108.993 25.7836 109.021 25.6125 109.021 25.4984C109.021 22.9885 107.262 21.3627 103.745 20.6212C100.227 19.8226 95.2057 19.4233 88.6808 19.4233C83.4043 19.4233 78.4965 19.5659 73.9574 19.8511C69.4184 20.1363 65.4468 20.5071 62.0426 20.9634C58.6383 21.4198 55.9433 21.9902 53.9574 22.6747C51.9716 23.3022 50.8936 23.9582 50.7234 24.6427C50.6667 24.7568 50.6383 24.985 50.6383 25.3272C50.6383 26.4681 51.2624 27.3238 52.5106 27.8942C53.7589 28.4646 55.4043 29.0065 57.4468 29.5199C58.1844 29.6911 58.695 29.8907 58.9787 30.1189C59.3191 30.29 59.4894 30.6037 59.4894 31.0601C59.4894 32.315 58.2411 33.1992 55.7447 33.7126C53.305 34.169 49.2482 34.3971 43.5745 34.3971C42.7234 34.3971 41.7872 34.3971 40.766 34.3971C39.8014 34.3971 38.8085 34.3686 37.7872 34.3116C36.8794 33.7982 36.0567 33.2563 35.3191 32.6858C34.6383 32.1154 34.0709 31.4594 33.617 30.7178C33.1631 29.9192 32.7943 29.0065 32.5106 27.9798C32.2837 26.8959 32.1702 25.6125 32.1702 24.1293C32.1702 20.6497 33.5319 17.4267 36.2553 14.4605C38.9787 11.4942 42.7518 8.9558 47.5745 6.8452C52.4539 4.67755 58.2411 2.99477 64.9362 1.79686C71.6312 0.598955 78.9504 0 86.8936 0C108.965 0 120 8.07163 120 24.2149C120 29.1777 118.922 33.4274 116.766 36.9641C114.667 40.4437 111.262 43.6952 106.553 46.7185C101.333 50.084 83.3191 54.9327 52.5106 61.2645Z" fill="white"/>
</svg>
