<svg width="95" height="24" viewBox="0 0 95 24" fill="none" xmlns="http://www.w3.org/2000/svg">
<path d="M18.8701 7.93666C17.9268 9.33983 17.1327 10.6114 16.4878 11.7515C15.843 12.8916 15.3569 13.866 15.0296 14.6748C14.712 15.4738 14.5532 16.0682 14.5532 16.458C14.5532 17.1791 14.866 17.5396 15.4916 17.5396C16.1558 17.5396 17.6573 16.6236 19.9962 14.7917L19.9673 15.8002C17.2627 18.5968 15.2799 19.9951 14.019 19.9951C12.5175 19.9951 11.7667 19.2058 11.7667 17.6273C11.7667 16.6821 12.2239 15.3423 13.1383 13.6078C14.0527 11.8733 15.4483 9.63216 17.3252 6.88429C15.1211 9.32034 13.2779 11.3228 11.7956 12.8916C10.3229 14.4604 8.79737 15.9805 7.21885 17.4519C6.84347 17.8124 6.50177 18.1437 6.19377 18.4458C5.88577 18.7381 5.57776 18.972 5.26976 19.1474C4.96175 19.313 4.62487 19.3959 4.25912 19.3959C3.69124 19.3959 3.2196 19.1717 2.84423 18.7235C2.46885 18.2753 2.28116 17.6419 2.28116 16.8234C2.28116 16.2972 2.43516 15.6882 2.74316 14.9963C3.05117 14.2948 3.51798 13.4811 4.14362 12.5554C4.76925 11.6297 5.53926 10.6163 6.45365 9.51523C7.93592 7.71255 8.96099 6.44093 9.52888 5.70037C10.0968 4.95981 10.3807 4.48721 10.3807 4.28258C10.3807 4.13642 10.3037 4.06334 10.1497 4.06334C9.96682 4.06334 9.65882 4.15104 9.22568 4.32643C8.80218 4.49208 8.23911 4.76979 7.53647 5.15956C6.83384 5.53959 5.92908 6.08526 4.82219 6.79659C3.99443 7.32278 3.17629 7.75152 2.36778 8.08283C1.5689 8.40438 1.00583 8.56516 0.678571 8.56516C0.486069 8.56516 0.327254 8.51157 0.202128 8.40438C0.0673759 8.2972 0 8.16078 0 7.99513C0 7.76127 0.101064 7.38124 0.303192 6.85505C0.505319 6.31912 0.77001 5.76857 1.09726 5.20341C1.41489 4.6285 1.69883 4.19976 1.94909 3.91717C2.6421 3.13764 3.59017 2.45067 4.79331 1.85627C5.99645 1.26188 7.23328 0.803898 8.5038 0.482339C9.77432 0.16078 10.8235 0 11.6512 0C12.2672 0 12.7148 0.107186 12.9939 0.321559C13.2827 0.526188 13.4271 0.867235 13.4271 1.3447C13.4271 2.38733 13.2971 3.1961 13.0372 3.77101C12.7774 4.33618 12.3442 5.07186 11.7378 5.97808C11.5165 6.32887 11.1844 6.81121 10.7416 7.42509C10.3085 8.02923 9.86576 8.62363 9.41337 9.20828C8.97062 9.78319 8.60486 10.2655 8.31611 10.6553C8.02736 11.0451 7.72898 11.4738 7.42097 11.9415C6.58359 13.1888 6.0542 13.9927 5.83283 14.3532C5.61145 14.7138 5.50076 15.0256 5.50076 15.2887C5.50076 15.6297 5.65957 15.8002 5.9772 15.8002C6.26596 15.8002 6.54509 15.6979 6.81459 15.4933C7.08409 15.2789 7.6616 14.782 8.54711 14.0024C9.56738 13.1157 10.5588 12.1851 11.5213 11.2107C12.4838 10.2363 13.3597 9.3106 14.1489 8.43362C14.9382 7.54689 15.9392 6.40195 17.152 4.99878C18.5091 3.40073 19.3754 2.40195 19.7508 2.00244C20.1261 1.60292 20.4341 1.40317 20.6748 1.40317C20.8865 1.40317 21.0742 1.57856 21.2378 1.92935C21.4111 2.2704 21.4977 2.75274 21.4977 3.37637C21.4977 3.70767 21.3293 4.15104 20.9924 4.70646C20.6651 5.25213 19.9577 6.32887 18.8701 7.93666Z" fill="white"/>
<path d="M34.8093 15.2302C34.5686 14.782 34.2077 14.3776 33.7264 14.0171C33.2452 13.6565 32.7014 13.3691 32.095 13.1547C31.4982 12.9306 30.8726 12.7649 30.2181 12.6577C28.2738 12.3654 26.4595 11.7272 24.7751 10.743C24.6307 10.665 24.4767 10.4994 24.3131 10.246C24.1494 9.99269 24.0676 9.74909 24.0676 9.51523C24.0676 8.65773 24.2072 7.80024 24.4863 6.94275C24.7751 6.07552 25.1408 5.39829 25.5836 4.91108C26.2958 4.10231 27.576 3.39586 29.424 2.79172C31.2817 2.18758 33.3703 1.88551 35.69 1.88551C37.076 1.88551 38.1444 1.99269 38.8951 2.20706C39.6555 2.42144 40.0357 2.75274 40.0357 3.20097C40.0357 3.93179 39.9347 4.49695 39.7325 4.89647C39.54 5.29598 39.3283 5.56395 39.0973 5.70037C38.8759 5.82704 38.4813 6.00244 37.9134 6.22655C37.307 6.44093 36.7776 6.66504 36.3252 6.8989C35.8825 7.13276 35.5023 7.35688 35.1847 7.57125C34.867 7.78563 34.6697 7.89281 34.5927 7.89281C34.4965 7.89281 34.4483 7.85384 34.4483 7.77588C34.4483 7.61023 34.6168 7.36175 34.9536 7.03045C35.3002 6.6894 35.7237 6.3922 36.2242 6.13885C36.7535 5.85627 37.0182 5.676 37.0182 5.59805C37.0182 5.47138 36.7247 5.40804 36.1375 5.40804C34.3569 5.40804 32.711 5.56882 31.1999 5.89038C29.6887 6.21194 28.4952 6.63581 27.6193 7.162C26.753 7.68819 26.3199 8.22412 26.3199 8.76979C26.3199 9.11084 26.498 9.35445 26.8541 9.50061C27.2199 9.63703 28.0187 9.87089 29.2508 10.2022C30.4828 10.5335 31.5849 10.9135 32.557 11.3423C33.9526 11.9464 34.9873 12.5749 35.6611 13.2278C36.3349 13.8806 36.6717 14.6114 36.6717 15.4202C36.6717 15.9756 36.537 16.5359 36.2675 17.1011C36.0076 17.6565 35.6226 18.1681 35.1125 18.6358C34.6023 19.1035 34.0152 19.4884 33.3511 19.7905C32.7832 20.0341 32.0661 20.2631 31.1999 20.4775C30.3432 20.6918 29.4096 20.8575 28.3989 20.9744C27.3979 21.1011 26.4402 21.1644 25.5258 21.1644C23.8414 21.1644 22.4843 21.0037 21.4544 20.6821C20.4341 20.3605 19.924 19.8733 19.924 19.2205C19.924 18.9281 20.0973 18.475 20.4438 17.8611C20.7903 17.2375 21.1993 16.8185 21.671 16.6041C22.0849 16.4385 22.4843 16.3459 22.8693 16.3264C23.2543 16.2972 23.4468 16.341 23.4468 16.458C23.4468 16.4872 23.4324 16.5164 23.4035 16.5457C23.3746 16.5749 23.3409 16.5993 23.3024 16.6188C23.2639 16.6382 23.2254 16.6577 23.1869 16.6772C22.9944 16.7552 22.8356 16.8185 22.7105 16.8672C22.595 16.9062 22.4987 16.9501 22.4217 16.9988C22.3544 17.0378 22.3207 17.0962 22.3207 17.1742C22.3207 17.3788 23.3169 17.4811 25.3093 17.4811C27.0418 17.4811 28.4615 17.4178 29.5684 17.2911C30.6753 17.1644 31.6522 16.9354 32.4992 16.6041C33.3463 16.2728 34.1163 15.8149 34.8093 15.2302Z" fill="white"/>
<path d="M56.4658 7.93666C55.5225 9.33983 54.7285 10.6114 54.0836 11.7515C53.4387 12.8916 52.9526 13.866 52.6254 14.6748C52.3078 15.4738 52.1489 16.0682 52.1489 16.458C52.1489 17.1791 52.4618 17.5396 53.0874 17.5396C53.7515 17.5396 55.253 16.6236 57.5919 14.7917L57.5631 15.8002C54.8584 18.5968 52.8756 19.9951 51.6147 19.9951C50.1132 19.9951 49.3625 19.2058 49.3625 17.6273C49.3625 16.6821 49.8197 15.3423 50.734 13.6078C51.6484 11.8733 53.0441 9.63216 54.921 6.88429C52.7168 9.32034 50.8736 11.3228 49.3913 12.8916C47.9187 14.4604 46.3931 15.9805 44.8146 17.4519C44.4392 17.8124 44.0975 18.1437 43.7895 18.4458C43.4815 18.7381 43.1735 18.972 42.8655 19.1474C42.5575 19.313 42.2206 19.3959 41.8549 19.3959C41.287 19.3959 40.8153 19.1717 40.44 18.7235C40.0646 18.2753 39.8769 17.6419 39.8769 16.8234C39.8769 16.2972 40.0309 15.6882 40.3389 14.9963C40.6469 14.2948 41.1137 13.4811 41.7394 12.5554C42.365 11.6297 43.135 10.6163 44.0494 9.51523C45.5317 7.71255 46.5567 6.44093 47.1246 5.70037C47.6925 4.95981 47.9764 4.48721 47.9764 4.28258C47.9764 4.13642 47.8994 4.06334 47.7454 4.06334C47.5626 4.06334 47.2546 4.15104 46.8214 4.32643C46.3979 4.49208 45.8349 4.76979 45.1322 5.15956C44.4296 5.53959 43.5248 6.08526 42.4179 6.79659C41.5902 7.32278 40.772 7.75152 39.9635 8.08283C39.1646 8.40438 38.6016 8.56516 38.2743 8.56516C38.0818 8.56516 37.923 8.51157 37.7979 8.40438C37.6631 8.2972 37.5957 8.16078 37.5957 7.99513C37.5957 7.76127 37.6968 7.38124 37.8989 6.85505C38.1011 6.31912 38.3658 5.76857 38.693 5.20341C39.0106 4.6285 39.2946 4.19976 39.5448 3.91717C40.2378 3.13764 41.1859 2.45067 42.3891 1.85627C43.5922 1.26188 44.829 0.803898 46.0995 0.482339C47.3701 0.16078 48.4192 0 49.247 0C49.863 0 50.3105 0.107186 50.5897 0.321559C50.8784 0.526188 51.0228 0.867235 51.0228 1.3447C51.0228 2.38733 50.8929 3.1961 50.633 3.77101C50.3731 4.33618 49.94 5.07186 49.3336 5.97808C49.1122 6.32887 48.7801 6.81121 48.3374 7.42509C47.9043 8.02923 47.4615 8.62363 47.0091 9.20828C46.5664 9.78319 46.2006 10.2655 45.9119 10.6553C45.6231 11.0451 45.3247 11.4738 45.0167 11.9415C44.1793 13.1888 43.65 13.9927 43.4286 14.3532C43.2072 14.7138 43.0965 15.0256 43.0965 15.2887C43.0965 15.6297 43.2553 15.8002 43.5729 15.8002C43.8617 15.8002 44.1408 15.6979 44.4103 15.4933C44.6798 15.2789 45.2573 14.782 46.1429 14.0024C47.1631 13.1157 48.1545 12.1851 49.117 11.2107C50.0795 10.2363 50.9554 9.3106 51.7447 8.43362C52.5339 7.54689 53.535 6.40195 54.7477 4.99878C56.1049 3.40073 56.9711 2.40195 57.3465 2.00244C57.7219 1.60292 58.0299 1.40317 58.2705 1.40317C58.4823 1.40317 58.67 1.57856 58.8336 1.92935C59.0068 2.2704 59.0935 2.75274 59.0935 3.37637C59.0935 3.70767 58.925 4.15104 58.5882 4.70646C58.2609 5.25213 57.5534 6.32887 56.4658 7.93666Z" fill="white"/>
<path d="M68.4347 18.1096L62.9916 15.4202C61.6056 17.3398 60.8308 18.6066 60.6672 19.2205C60.5517 19.659 60.2918 20.0244 59.8875 20.3167C59.4929 20.6188 59.209 20.7698 59.0357 20.7698C58.5448 20.7698 58.2994 20.5798 58.2994 20.1998C58.2994 19.9854 58.5882 19.3715 59.1657 18.3581C59.7528 17.335 60.5565 16.1315 61.5768 14.7479C61.0089 14.514 60.6576 14.3581 60.5228 14.2801C60.388 14.2022 60.3351 14.056 60.364 13.8417C60.3929 13.6175 60.5613 13.2716 60.8693 12.8039C61.1388 12.3946 61.3409 12.1218 61.4757 11.9854C61.6104 11.8392 61.7693 11.7272 61.9521 11.6492C62.135 11.5615 62.3275 11.503 62.5296 11.4738C62.7318 11.4446 63.2996 11.3715 64.2333 11.2546C64.9937 10.2119 65.8166 9.08648 66.7021 7.8782C67.5973 6.66991 68.2951 5.7296 68.7956 5.05725C67.2845 5.26188 66.2305 5.4324 65.6337 5.56882C64.9985 5.69549 64.4643 5.80268 64.0312 5.89038C63.6077 5.96833 63.3093 6.04141 63.136 6.10962C62.9628 6.16809 62.8761 6.25579 62.8761 6.37272C62.8761 6.4799 62.982 6.55298 63.1938 6.59196C63.4055 6.63094 63.6702 6.65043 63.9878 6.65043C64.3151 6.65043 64.5654 6.66504 64.7386 6.69428C64.9215 6.71376 65.0129 6.76736 65.0129 6.85505C65.0129 6.9525 64.8926 7.01096 64.652 7.03045C64.421 7.04019 63.7617 7.06943 62.674 7.11815C62.058 7.13764 61.5382 7.15713 61.1147 7.17661C60.7009 7.1961 60.4121 7.20585 60.2485 7.20585C60.0271 7.20585 59.8539 7.13764 59.7287 7.00122C59.6036 6.8648 59.541 6.68453 59.541 6.46041C59.541 6.29476 59.6325 5.98782 59.8154 5.53959C59.9982 5.09135 60.2581 4.63825 60.595 4.18027C60.9319 3.72229 61.3169 3.36663 61.75 3.11328C62.2409 2.81121 63.0013 2.50914 64.0312 2.20706C65.0707 1.89525 66.2209 1.64677 67.4818 1.46163C68.7523 1.26675 70.0084 1.16931 71.25 1.16931C72.0008 1.16931 72.7323 1.21315 73.4445 1.30085C74.1664 1.38855 74.8161 1.49574 75.3936 1.62241C75.9808 1.74909 76.4428 1.87576 76.7796 2.00244C77.6555 2.29476 78.3245 2.73812 78.7865 3.33252C79.2581 3.92692 79.4939 4.57978 79.4939 5.29111C79.4939 5.98295 79.3736 6.66017 79.133 7.32278C78.902 7.97564 78.541 8.58465 78.0502 9.14982C77.5689 9.70524 76.9866 10.1583 76.3032 10.5091C75.7449 10.8015 74.8979 11.0987 73.7622 11.4007C72.6264 11.7028 71.2548 11.9708 69.6474 12.2046C68.04 12.4385 66.2449 12.609 64.2622 12.7162C65.7444 13.2424 67.1256 13.7734 68.4058 14.3094C69.6955 14.8356 70.7784 15.3082 71.6543 15.7272C72.5398 16.1364 73.2328 16.4726 73.7333 16.7357C74.4359 17.106 74.8931 17.3739 75.1049 17.5396C75.3166 17.7052 75.4562 17.9196 75.5236 18.1827C75.5909 18.4458 75.6246 18.8794 75.6246 19.4836C75.6246 20.1657 75.5813 20.6675 75.4947 20.989C75.4177 21.3203 75.2444 21.486 74.9749 21.486C74.8883 21.486 74.6573 21.3885 74.2819 21.1937C73.9162 21.0085 73.406 20.7308 72.7515 20.3605C72.097 20 71.5003 19.6784 70.9613 19.3959C70.4319 19.1035 69.5897 18.6748 68.4347 18.1096ZM69.7052 4.91108C69.7148 4.97929 69.7196 5.04263 69.7196 5.1011C69.7292 5.15956 69.734 5.24239 69.734 5.34957C69.734 5.62241 69.6474 5.9391 69.4742 6.29963C69.3105 6.65043 69.094 7.01583 68.8245 7.39586C68.5646 7.76614 68.17 8.30207 67.6406 9.00365C67.1208 9.69549 66.6396 10.3337 66.1968 10.9184C68.2181 10.5286 69.941 10.1535 71.3655 9.79294C72.7997 9.4324 73.9787 9.07186 74.9027 8.71133C75.8268 8.34105 76.5198 7.95615 76.9818 7.55664C77.4534 7.14738 77.6892 6.72351 77.6892 6.28502C77.6892 5.79781 77.1983 5.41778 76.2166 5.14495C75.2444 4.86236 74.0509 4.72107 72.636 4.72107C72.3473 4.72107 72.0393 4.73082 71.712 4.7503C71.3944 4.76005 71.0094 4.78928 70.557 4.838C70.1142 4.87698 69.8303 4.90134 69.7052 4.91108Z" fill="white"/>
<path d="M86.2219 12.1754H88.402C89.6629 10.4604 90.6206 8.96468 91.2751 7.68819C91.9392 6.41169 92.2713 5.57369 92.2713 5.17418C92.2713 4.61876 91.7997 4.34105 90.8564 4.34105C90.3078 4.38977 89.3356 4.51157 87.94 4.70646C86.5443 4.8916 85.192 5.11571 83.883 5.37881C82.7087 5.60292 81.7655 5.83678 81.0532 6.08039C80.3506 6.31425 79.8549 6.50914 79.5661 6.66504C79.2774 6.82095 79.0993 6.93301 79.0319 7.00122C79.7442 6.96224 80.3457 6.94275 80.8366 6.94275C81.6066 6.94275 81.9916 7.03045 81.9916 7.20585C81.9916 7.2838 81.7221 7.38611 81.1831 7.51279C80.6441 7.62972 80.134 7.75639 79.6527 7.89281C79.1811 8.02923 78.7191 8.19001 78.2667 8.37515C77.824 8.56029 77.5545 8.65286 77.4582 8.65286C77.2368 8.65286 77.054 8.57004 76.9096 8.40438C76.7652 8.22899 76.693 8.01949 76.693 7.77588C76.693 7.61023 76.823 7.18149 77.0828 6.48965C77.3523 5.78806 77.7277 5.08648 78.209 4.3849C78.6902 3.67357 79.287 3.14738 79.9992 2.80633C80.2591 2.67966 81.0869 2.45067 82.4825 2.11937C83.8878 1.78806 85.4711 1.48599 87.2325 1.21315C88.9939 0.940317 90.6061 0.803898 92.0692 0.803898C92.9547 0.803898 93.6621 0.930572 94.1915 1.18392C94.7305 1.42753 95 1.95859 95 2.7771C95 3.04019 94.9038 3.44945 94.7113 4.00487C94.5187 4.55055 94.2107 5.25213 93.7872 6.10962C93.3734 6.96711 92.8632 7.90743 92.2568 8.93057C91.6601 9.95372 90.9767 11.0353 90.2067 12.1754H92.4301L90.5099 14.9671C90.25 14.9866 89.9228 15.0012 89.5281 15.011C89.1431 15.0207 88.7196 15.0353 88.2576 15.0548C87.0737 16.6139 85.7888 18.0804 84.4027 19.4543C83.0263 20.8283 81.7751 21.9294 80.6489 22.7576C79.5324 23.5859 78.748 24 78.2956 24C78.1127 24 77.9539 23.9367 77.8192 23.81C77.6844 23.6931 77.617 23.5371 77.617 23.3423C77.617 23.1766 77.8288 22.7527 78.2523 22.0706C78.6854 21.3885 79.2822 20.7503 80.0426 20.1559C80.8029 19.5615 81.6692 19.2302 82.6413 19.162C83.036 18.743 83.3728 18.3727 83.652 18.0512C83.9407 17.7199 84.345 17.2473 84.8647 16.6334C85.3845 16.0097 85.7839 15.5323 86.0631 15.201L81.7173 15.4202C81.2457 15.4397 80.9184 15.4202 80.7356 15.3618C80.5623 15.2935 80.4757 15.1328 80.4757 14.8794C80.4757 14.8794 80.5238 14.7576 80.6201 14.514C80.7163 14.2607 80.8174 14.0414 80.9233 13.8563C81.0773 13.5737 81.1976 13.4032 81.2842 13.3447C81.3804 13.2862 81.6451 13.2083 82.0783 13.1108L84.7348 12.4531C85.4471 12.268 85.9428 12.1754 86.2219 12.1754Z" fill="white"/>
</svg>
