<svg width="194" height="126" viewBox="0 0 194 126" fill="none" xmlns="http://www.w3.org/2000/svg">
<path d="M184.194 99.5658C166.801 117.189 154.096 126 146.078 126C141.638 126 138.091 124.864 135.439 122.592C132.787 120.32 131.461 116.789 131.461 112C131.461 108.93 132.17 105.307 133.589 101.132C135.007 96.9561 137.166 92.0746 140.065 86.4868C143.025 80.8991 146.757 74.5439 151.259 67.4211C155.761 60.2982 161.096 52.2851 167.264 43.3816C160.048 51.3026 153.603 58.3026 147.928 64.3816C142.254 70.4605 136.919 76.0789 131.924 81.2368C126.99 86.3333 122.179 91.1842 117.492 95.7895C112.804 100.333 107.809 105.061 102.505 109.974C100.654 111.693 98.9582 113.32 97.4163 114.855C95.8744 116.329 94.3634 117.618 92.8832 118.724C91.4646 119.829 89.9844 120.689 88.4425 121.303C86.9623 121.917 85.3279 122.224 83.5393 122.224C79.8388 122.224 76.7859 120.842 74.3805 118.079C72.0369 115.254 70.865 111.232 70.865 106.013C70.865 96.3728 79.6846 81.0219 97.3238 59.9605C100.161 56.5833 102.69 53.5746 104.91 50.9342C107.13 48.2325 109.104 45.807 110.831 43.6579C106.02 48.8772 101.549 53.6974 97.4163 58.1184C93.3457 62.4781 89.491 66.5921 85.8522 70.4605C82.275 74.2675 78.852 77.8597 75.5832 81.2368C72.3144 84.614 69.0765 87.8991 65.8693 91.0921C62.6622 94.2237 59.4243 97.3553 56.1555 100.487C52.9483 103.557 49.587 106.719 46.0715 109.974C44.2213 111.693 42.5252 113.32 40.9833 114.855C39.4414 116.329 37.9304 117.618 36.4502 118.724C35.0316 119.829 33.5514 120.689 32.0095 121.303C30.5293 121.917 28.8949 122.224 27.1063 122.224C23.4058 122.224 20.3529 120.842 17.9475 118.079C15.6039 115.254 14.432 111.232 14.432 106.013C14.432 96.557 23.3441 81.2061 41.1683 59.9605C46.1024 54.0658 50.1729 49.1535 53.3801 45.2237C56.6489 41.2939 59.2392 38.1009 61.1512 35.6447C63.0631 33.1272 64.3891 31.2237 65.1292 29.9342C65.931 28.5833 66.3319 27.5702 66.3319 26.8947C66.3319 26.0351 65.8385 25.6053 64.8517 25.6053C63.8649 25.6667 62.508 25.9737 60.7811 26.5263C59.1159 27.0789 56.9264 28 54.2127 29.2895C51.5606 30.5789 48.2918 32.3289 44.4063 34.5395C40.5824 36.6886 36.0184 39.4518 30.7144 42.8289C28.1857 44.4254 25.5645 45.9298 22.8507 47.3421C20.1987 48.693 17.67 49.8596 15.2647 50.8421C12.8593 51.8246 10.6698 52.5921 8.69623 53.1447C6.7843 53.6974 5.33492 53.9737 4.34812 53.9737C2.86791 53.9737 1.78859 53.636 1.11016 52.9605C0.370052 52.2237 0 51.2719 0 50.1053C0 48.8158 0.462566 47.0044 1.3877 44.6711C2.25115 42.3377 3.33047 39.9123 4.62566 37.3947C5.85916 34.8158 7.18519 32.3596 8.60372 30.0263C10.0223 27.693 11.2866 25.9123 12.3968 24.6842C14.6787 22.1667 17.4233 19.8026 20.6304 17.5921C23.8375 15.3816 27.2914 13.386 30.9919 11.6053C34.7541 9.76316 38.6396 8.13597 42.6485 6.72368C46.6574 5.25 50.5738 4.02193 54.3977 3.03947C58.2833 2.05702 61.9529 1.32018 65.4068 0.828947C68.8606 0.276316 71.8827 0 74.4731 0C78.3586 0 81.2265 0.644737 83.0768 1.93421C84.927 3.22368 85.8522 5.3421 85.8522 8.28947C85.8522 11.2982 85.698 13.9079 85.3896 16.1184C85.1429 18.2675 84.6187 20.386 83.8169 22.4737C83.0151 24.5614 81.9049 26.8026 80.4864 29.1974C79.0679 31.5307 77.2485 34.3553 75.0281 37.6711C72.1294 41.9693 69.354 45.8991 66.702 49.4605C64.0499 53.0219 61.5521 56.3377 59.2084 59.4079C56.9264 62.4167 54.7678 65.2412 52.7325 67.8816C50.7589 70.4605 48.9703 72.9167 47.3667 75.25C44.5913 79.3026 42.371 82.4956 40.7058 84.8289C39.1022 87.1623 37.8687 89.0351 37.0052 90.4474C36.1418 91.7982 35.5867 92.9035 35.34 93.7632C35.0933 94.5614 34.97 95.4518 34.97 96.4342C34.97 98.5219 36.0184 99.5658 38.1154 99.5658C39.1022 99.5658 39.9657 99.443 40.7058 99.1974C41.5075 98.9518 42.4327 98.4605 43.4812 97.7237C44.5913 96.9254 45.979 95.7895 47.6443 94.3158C49.3712 92.7807 51.684 90.7544 54.5827 88.2368C59.2084 84.1842 63.834 79.9167 68.4597 75.4342C73.147 70.9518 77.711 66.4079 82.1516 61.8026C86.6539 57.136 90.9712 52.5 95.1035 47.8947C99.2974 43.2895 103.275 38.8684 107.038 34.6316C110.8 30.3333 114.285 26.3114 117.492 22.5658C120.76 18.8202 123.69 15.5044 126.28 12.6184C128.809 10.1009 130.814 8.84211 132.294 8.84211C133.589 8.84211 134.792 9.94737 135.902 12.1579C137.012 14.307 137.567 17.3465 137.567 21.2763C137.567 22.2588 137.444 23.2105 137.197 24.1316C136.95 25.0526 136.488 26.1272 135.809 27.3553C135.192 28.5219 134.329 29.9342 133.219 31.5921C132.17 33.25 130.814 35.2763 129.148 37.6711C126.743 41.1711 124.338 44.7018 121.932 48.2632C119.589 51.7632 117.307 55.1711 115.086 58.4868C112.928 61.7412 110.862 64.8114 108.888 67.6974C106.976 70.5833 105.28 73.1009 103.8 75.25C101.024 79.2412 98.804 82.4035 97.1388 84.7368C95.5352 87.0702 94.3017 88.943 93.4382 90.3553C92.5748 91.7675 92.0197 92.9035 91.773 93.7632C91.5263 94.5614 91.403 95.4518 91.403 96.4342C91.403 98.5219 92.4514 99.5658 94.5484 99.5658C95.5352 99.5658 96.3987 99.443 97.1388 99.1974C97.9406 98.9518 98.8657 98.4605 99.9142 97.7237C101.024 96.9254 102.412 95.7895 104.077 94.3158C105.804 92.7807 108.117 90.7544 111.016 88.2368C115.641 84.1842 120.267 79.9167 124.893 75.4342C129.58 70.9518 134.144 66.4079 138.585 61.8026C143.087 57.136 147.404 52.5 151.536 47.8947C155.73 43.2895 159.708 38.8684 163.471 34.6316C167.233 30.3333 170.718 26.3114 173.925 22.5658C177.193 18.8202 180.123 15.5044 182.713 12.6184C185.242 10.1009 187.247 8.84211 188.727 8.84211C190.022 8.84211 191.225 9.94737 192.335 12.1579C193.445 14.307 194 17.3465 194 21.2763C194 22.5658 193.784 23.8246 193.352 25.0526C192.921 26.2193 192.088 27.7851 190.855 29.75C189.683 31.7149 187.987 34.2939 185.766 37.4868C183.608 40.6184 180.74 44.7939 177.163 50.0132C172.537 56.7675 168.497 63.0307 165.043 68.8026C161.59 74.5746 158.691 79.7632 156.347 84.3684C154.065 88.9737 152.338 92.9342 151.166 96.25C150.056 99.5658 149.501 102.145 149.501 103.987C149.501 106.197 150.025 107.855 151.074 108.961C152.122 110.004 153.603 110.526 155.515 110.526C159.832 110.526 169.453 104.754 184.379 93.2105L184.194 99.5658Z" fill="white"/>
</svg>
