<svg width="815" height="1084" viewBox="0 0 815 1084" fill="none" xmlns="http://www.w3.org/2000/svg">
<path d="M1007.1 843.824C989.208 818.409 964.228 796.493 932.159 778.074C900.089 759.656 864.681 746.098 825.935 737.399C787.712 728.044 748.12 722.427 707.158 720.55C585.659 716.55 469.749 690.716 359.429 643.047C350.017 639.348 339.407 630.414 327.597 616.243C315.788 602.072 309.074 587.915 307.455 573.772C301.517 521.913 304.156 469.073 315.371 415.25C327.11 360.77 344.896 317.24 368.729 284.66C406.897 230.737 480.67 179.005 590.048 129.467C700.016 79.86 826.272 46.8965 968.814 30.5763C1053.98 20.8247 1120.38 19.7903 1168 27.4729C1216.21 35.0877 1241.86 52.4492 1244.97 79.5572C1250.03 123.755 1247.73 158.646 1238.08 184.229C1229.01 209.745 1217.86 227.441 1204.61 237.316C1191.88 246.535 1168.84 259.919 1135.5 277.468C1099.72 294.699 1068.74 311.978 1042.56 329.304C1016.98 346.562 995.166 362.791 977.132 377.99C959.098 393.19 947.716 401.06 942.984 401.602C937.069 402.279 933.842 400.261 933.302 395.546C932.155 385.528 940.785 369.316 959.192 346.909C978.124 323.846 1002.09 302.892 1031.09 284.049C1061.67 263.235 1076.68 250.47 1076.14 245.756C1075.27 238.095 1056.79 236.33 1020.71 240.461C911.288 252.989 811.261 274.292 720.628 304.371C629.995 334.45 559.589 368.482 509.41 406.467C459.822 444.384 436.917 479.843 440.695 512.844C443.057 533.47 455.686 546.949 478.582 553.283C502.002 558.96 552.712 567.483 630.714 578.851C708.715 590.219 779.069 605.448 841.775 624.538C931.72 651.256 999.654 681.986 1045.58 716.729C1091.5 751.472 1117.26 793.3 1122.86 842.212C1126.71 875.802 1122.31 910.635 1109.66 946.711C1097.54 982.13 1077.42 1015.78 1049.31 1047.65C1021.2 1079.53 987.788 1106.94 949.069 1129.88C915.859 1148.61 873.381 1167.5 821.634 1186.56C770.478 1205.55 714.253 1222.14 652.959 1236.32C592.325 1251.02 533.913 1261.59 477.724 1268.03C374.218 1279.88 289.709 1279.7 224.196 1267.5C159.274 1255.23 124.553 1229.35 120.033 1189.87C118.008 1172.19 125.517 1143.57 142.559 1104.01C159.534 1063.85 181.769 1035.64 209.267 1019.35C233.553 1006.42 257.457 998.014 280.981 994.126C304.437 989.65 316.57 990.947 317.379 998.019C317.582 999.787 316.897 1001.66 315.325 1003.63C313.753 1005.6 311.852 1007.31 309.621 1008.76C307.39 1010.21 305.159 1011.66 302.928 1013.11C291.638 1019.18 282.318 1024.12 274.966 1027.95C268.139 1031.12 262.528 1034.45 258.133 1037.94C254.263 1040.77 252.598 1044.54 253.137 1049.26C254.554 1061.63 316.479 1060.81 438.912 1046.79C545.375 1034.6 632.177 1020.78 699.318 1005.33C766.459 989.886 824.906 969.164 874.661 943.169C924.416 917.173 968.561 884.058 1007.1 843.824Z" fill="white"/>
</svg>
