<svg width="176" height="43" viewBox="0 0 176 43" fill="none" xmlns="http://www.w3.org/2000/svg">
<path d="M34.9593 14.2199C33.2118 16.7339 31.7406 19.0122 30.5459 21.0548C29.3512 23.0974 28.4507 24.8433 27.8444 26.2923C27.2559 27.7239 26.9617 28.7889 26.9617 29.4872C26.9617 30.7791 27.5412 31.4251 28.7003 31.4251C29.9307 31.4251 32.7125 29.784 37.0456 26.5018L36.9921 28.3088C31.9814 33.3193 28.308 35.8246 25.972 35.8246C23.1903 35.8246 21.7994 34.4105 21.7994 31.5822C21.7994 29.8888 22.6464 27.4882 24.3404 24.3806C26.0344 21.273 28.6201 17.2576 32.0973 12.3343C28.0138 16.6989 24.599 20.2866 21.8529 23.0974C19.1246 25.9082 16.2983 28.6318 13.3739 31.268C12.6784 31.9139 12.0454 32.5075 11.4748 33.0487C10.9042 33.5725 10.3335 33.9915 9.76292 34.3057C9.1923 34.6025 8.56819 34.7509 7.89058 34.7509C6.8385 34.7509 5.96474 34.3494 5.2693 33.5463C4.57386 32.7432 4.22614 31.6084 4.22614 30.1419C4.22614 29.1991 4.51145 28.108 5.08207 26.8685C5.65268 25.6115 6.51753 24.1537 7.6766 22.4951C8.83566 20.8366 10.2622 19.0209 11.9562 17.0481C14.7023 13.8183 16.6014 11.54 17.6535 10.2132C18.7056 8.88632 19.2316 8.03959 19.2316 7.67296C19.2316 7.41108 19.089 7.28015 18.8036 7.28015C18.4648 7.28015 17.8942 7.43727 17.0918 7.75152C16.3072 8.04832 15.264 8.54588 13.9623 9.24422C12.6606 9.92509 10.9844 10.9028 8.93374 12.1772C7.4002 13.12 5.8845 13.8881 4.38663 14.4817C2.90659 15.0579 1.86342 15.3459 1.25714 15.3459C0.900507 15.3459 0.606282 15.2499 0.374468 15.0579C0.124823 14.8658 0 14.6214 0 14.3246C0 13.9056 0.187234 13.2247 0.561702 12.282C0.93617 11.3218 1.42655 10.3354 2.03283 9.32278C2.62128 8.29273 3.14732 7.52456 3.61094 7.01827C4.89483 5.6216 6.65127 4.39078 8.88024 3.32582C11.1092 2.26086 13.4006 1.44032 15.7544 0.86419C18.1082 0.288063 20.0519 0 21.5854 0C22.7266 0 23.5558 0.192042 24.0729 0.576127C24.6079 0.942753 24.8754 1.5538 24.8754 2.40926C24.8754 4.2773 24.6347 5.72635 24.1532 6.75639C23.6717 7.76898 22.8693 9.08709 21.7459 10.7107C21.3358 11.3392 20.7206 12.2034 19.9003 13.3033C19.0979 14.3857 18.2776 15.4507 17.4395 16.4982C16.6192 17.5282 15.9416 18.3924 15.4067 19.0907C14.8717 19.7891 14.3189 20.5572 13.7483 21.3953C12.197 23.6299 11.2162 25.0702 10.8061 25.7162C10.3959 26.3622 10.1909 26.9208 10.1909 27.3922C10.1909 28.0033 10.4851 28.3088 11.0736 28.3088C11.6085 28.3088 12.1256 28.1255 12.6249 27.7588C13.1242 27.3747 14.1941 26.4844 15.8347 25.0877C17.7248 23.499 19.5615 21.8317 21.3447 20.0859C23.1279 18.34 24.7506 16.6815 26.2128 15.1102C27.675 13.5215 29.5295 11.4702 31.7763 8.95615C34.2906 6.09298 35.8954 4.30349 36.5909 3.5877C37.2863 2.8719 37.8569 2.51401 38.3027 2.51401C38.695 2.51401 39.0428 2.82826 39.3459 3.45676C39.6669 4.0678 39.8274 4.93199 39.8274 6.04933C39.8274 6.64292 39.5153 7.43727 38.8912 8.4324C38.2849 9.41007 36.9743 11.3392 34.9593 14.2199Z" fill="white"/>
<path d="M64.4888 27.2875C64.043 26.4844 63.3743 25.7598 62.4827 25.1139C61.5911 24.4679 60.5836 23.9529 59.4602 23.5688C58.3546 23.1673 57.1955 22.8705 55.983 22.6784C52.381 22.1547 49.0197 21.0112 45.8991 19.2479C45.6316 19.1082 45.3463 18.8114 45.0432 18.3575C44.74 17.9036 44.5885 17.4671 44.5885 17.0481C44.5885 15.5118 44.847 13.9754 45.3641 12.4391C45.8991 10.8853 46.5767 9.67195 47.397 8.79903C48.7165 7.34998 51.0881 6.08425 54.5119 5.00183C57.9534 3.91941 61.8229 3.3782 66.1204 3.3782C68.6881 3.3782 70.6675 3.57024 72.0584 3.95432C73.4671 4.33841 74.1714 4.93199 74.1714 5.73508C74.1714 7.04446 73.9842 8.05704 73.6097 8.77284C73.2531 9.48863 72.8608 9.96874 72.4328 10.2132C72.0227 10.4401 71.2916 10.7544 70.2395 11.1559C69.1161 11.54 68.1354 11.9415 67.2973 12.3605C66.477 12.7795 65.7726 13.1811 65.1842 13.5652C64.5957 13.9492 64.2302 14.1413 64.0875 14.1413C63.9092 14.1413 63.8201 14.0715 63.8201 13.9318C63.8201 13.635 64.1321 13.1898 64.7562 12.5962C65.3982 11.9852 66.1828 11.4527 67.11 10.9988C68.0908 10.4925 68.5812 10.1695 68.5812 10.0298C68.5812 9.80288 68.0373 9.6894 66.9495 9.6894C63.6507 9.6894 60.6014 9.97747 57.8018 10.5536C55.0022 11.1297 52.7911 11.8892 51.1684 12.8319C49.5635 13.7747 48.7611 14.7349 48.7611 15.7125C48.7611 16.3236 49.091 16.76 49.7508 17.0219C50.4284 17.2663 51.9084 17.6853 54.1909 18.2789C56.4734 18.8725 58.5151 19.5534 60.3161 20.3216C62.9017 21.404 64.8186 22.53 66.0669 23.6998C67.3151 24.8695 67.9392 26.1788 67.9392 27.6279C67.9392 28.623 67.6896 29.6269 67.1903 30.6395C66.7088 31.6346 65.9955 32.5512 65.0505 33.3892C64.1054 34.2272 63.0176 34.9168 61.7872 35.458C60.7352 35.8944 59.4067 36.3047 57.8018 36.6888C56.2148 37.0729 54.4851 37.3697 52.6128 37.5792C50.7583 37.8061 48.984 37.9196 47.29 37.9196C44.1694 37.9196 41.6551 37.6315 39.7471 37.0554C37.8569 36.4793 36.9119 35.6064 36.9119 34.4367C36.9119 33.9129 37.2328 33.1011 37.8748 32.0012C38.5167 30.8839 39.2746 30.1332 40.1483 29.7491C40.9151 29.4523 41.6551 29.2864 42.3684 29.2515C43.0817 29.1991 43.4383 29.2777 43.4383 29.4872C43.4383 29.5396 43.4115 29.592 43.3581 29.6443C43.3046 29.6967 43.2421 29.7404 43.1708 29.7753C43.0995 29.8102 43.0282 29.8451 42.9568 29.88C42.6002 30.0197 42.306 30.1332 42.0742 30.2205C41.8602 30.2903 41.6819 30.3689 41.5392 30.4562C41.4144 30.526 41.352 30.6307 41.352 30.7704C41.352 31.137 43.1976 31.3203 46.8888 31.3203C50.0985 31.3203 52.7287 31.2069 54.7793 30.9799C56.83 30.7529 58.6399 30.3427 60.2091 29.7491C61.7783 29.1555 63.2049 28.335 64.4888 27.2875Z" fill="white"/>
<path d="M104.61 14.2199C102.863 16.7339 101.392 19.0122 100.197 21.0548C99.0022 23.0974 98.1017 24.8433 97.4954 26.2923C96.907 27.7239 96.6128 28.7889 96.6128 29.4872C96.6128 30.7791 97.1923 31.4251 98.3514 31.4251C99.5818 31.4251 102.364 29.784 106.697 26.5018L106.643 28.3088C101.632 33.3193 97.9591 35.8246 95.6231 35.8246C92.8413 35.8246 91.4505 34.4105 91.4505 31.5822C91.4505 29.8888 92.2975 27.4882 93.9915 24.3806C95.6855 21.273 98.2711 17.2576 101.748 12.3343C97.6648 16.6989 94.2501 20.2866 91.504 23.0974C88.7757 25.9082 85.9493 28.6318 83.0249 31.268C82.3295 31.9139 81.6965 32.5075 81.1258 33.0487C80.5552 33.5725 79.9846 33.9915 79.414 34.3057C78.8434 34.6025 78.2193 34.7509 77.5416 34.7509C76.4896 34.7509 75.6158 34.3494 74.9204 33.5463C74.2249 32.7432 73.8772 31.6084 73.8772 30.1419C73.8772 29.1991 74.1625 28.108 74.7331 26.8685C75.3037 25.6115 76.1686 24.1537 77.3277 22.4951C78.4867 20.8366 79.9133 19.0209 81.6073 17.0481C84.3534 13.8183 86.2525 11.54 87.3046 10.2132C88.3566 8.88632 88.8827 8.03959 88.8827 7.67296C88.8827 7.41108 88.74 7.28015 88.4547 7.28015C88.1159 7.28015 87.5453 7.43727 86.7429 7.75152C85.9583 8.04832 84.9151 8.54588 83.6134 9.24422C82.3117 9.92509 80.6355 10.9028 78.5848 12.1772C77.0513 13.12 75.5356 13.8881 74.0377 14.4817C72.5576 15.0579 71.5145 15.3459 70.9082 15.3459C70.5516 15.3459 70.2573 15.2499 70.0255 15.0579C69.7759 14.8658 69.6511 14.6214 69.6511 14.3246C69.6511 13.9056 69.8383 13.2247 70.2128 12.282C70.5872 11.3218 71.0776 10.3354 71.6839 9.32278C72.2723 8.29273 72.7984 7.52456 73.262 7.01827C74.5459 5.6216 76.3023 4.39078 78.5313 3.32582C80.7603 2.26086 83.0517 1.44032 85.4055 0.86419C87.7593 0.288063 89.7029 0 91.2365 0C92.3777 0 93.2069 0.192042 93.724 0.576127C94.259 0.942753 94.5264 1.5538 94.5264 2.40926C94.5264 4.2773 94.2857 5.72635 93.8043 6.75639C93.3228 7.76898 92.5204 9.08709 91.397 10.7107C90.9868 11.3392 90.3716 12.2034 89.5514 13.3033C88.7489 14.3857 87.9287 15.4507 87.0906 16.4982C86.2703 17.5282 85.5927 18.3924 85.0577 19.0907C84.5228 19.7891 83.97 20.5572 83.3994 21.3953C81.848 23.6299 80.8673 25.0702 80.4571 25.7162C80.047 26.3622 79.8419 26.9208 79.8419 27.3922C79.8419 28.0033 80.1362 28.3088 80.7246 28.3088C81.2596 28.3088 81.7767 28.1255 82.276 27.7588C82.7753 27.3747 83.8452 26.4844 85.4857 25.0877C87.3759 23.499 89.2126 21.8317 90.9957 20.0859C92.7789 18.34 94.4016 16.6815 95.8638 15.1102C97.326 13.5215 99.1805 11.4702 101.427 8.95615C103.942 6.09298 105.547 4.30349 106.242 3.5877C106.937 2.8719 107.508 2.51401 107.954 2.51401C108.346 2.51401 108.694 2.82826 108.997 3.45676C109.318 4.0678 109.478 4.93199 109.478 6.04933C109.478 6.64292 109.166 7.43727 108.542 8.4324C107.936 9.41007 106.625 11.3392 104.61 14.2199Z" fill="white"/>
<path d="M126.784 32.4464L116.7 27.6279C114.133 31.0672 112.697 33.3368 112.394 34.4367C112.18 35.2223 111.698 35.877 110.95 36.4007C110.218 36.9419 109.692 37.2125 109.371 37.2125C108.462 37.2125 108.007 36.8721 108.007 36.1912C108.007 35.8071 108.542 34.7073 109.612 32.8916C110.7 31.0585 112.189 28.9024 114.079 26.4233C113.027 26.0043 112.376 25.7249 112.126 25.5853C111.877 25.4456 111.779 25.1837 111.832 24.7996C111.886 24.3981 112.198 23.7783 112.768 22.9403C113.268 22.2071 113.642 21.7182 113.892 21.4738C114.141 21.2119 114.436 21.0112 114.774 20.8715C115.113 20.7144 115.47 20.6096 115.844 20.5572C116.219 20.5049 117.271 20.3739 119.001 20.1644C120.409 18.2964 121.934 16.2799 123.574 14.1151C125.233 11.9503 126.526 10.2655 127.453 9.0609C124.653 9.42753 122.701 9.73305 121.595 9.97747C120.418 10.2044 119.429 10.3965 118.626 10.5536C117.842 10.6933 117.289 10.8242 116.968 10.9464C116.647 11.0512 116.486 11.2083 116.486 11.4178C116.486 11.6098 116.682 11.7408 117.075 11.8106C117.467 11.8804 117.957 11.9153 118.546 11.9153C119.152 11.9153 119.616 11.9415 119.937 11.9939C120.276 12.0288 120.445 12.1248 120.445 12.282C120.445 12.4566 120.222 12.5613 119.776 12.5962C119.348 12.6137 118.127 12.6661 116.112 12.7534C114.971 12.7883 114.008 12.8232 113.223 12.8581C112.456 12.893 111.921 12.9105 111.618 12.9105C111.208 12.9105 110.887 12.7883 110.655 12.5438C110.424 12.2994 110.308 11.9765 110.308 11.5749C110.308 11.2781 110.477 10.7282 110.816 9.92509C111.155 9.12201 111.636 8.31019 112.26 7.48965C112.884 6.6691 113.598 6.03187 114.4 5.57795C115.309 5.03674 116.718 4.49553 118.626 3.95432C120.552 3.39566 122.683 2.95047 125.019 2.61876C127.373 2.26959 129.7 2.09501 132 2.09501C133.391 2.09501 134.746 2.17357 136.066 2.33069C137.403 2.48782 138.607 2.67986 139.677 2.90682C140.764 3.13378 141.62 3.36074 142.244 3.5877C143.867 4.11145 145.106 4.90581 145.962 5.97077C146.836 7.03573 147.273 8.20544 147.273 9.4799C147.273 10.7194 147.05 11.9328 146.604 13.12C146.176 14.2897 145.508 15.3808 144.598 16.3934C143.707 17.3886 142.628 18.2004 141.362 18.8289C140.327 19.3526 138.758 19.8851 136.654 20.4263C134.55 20.9675 132.009 21.4476 129.031 21.8666C126.053 22.2856 122.727 22.5912 119.054 22.7832C121.8 23.7259 124.359 24.6774 126.731 25.6376C129.12 26.5804 131.126 27.4271 132.749 28.1778C134.389 28.9111 135.673 29.5134 136.601 29.9848C137.902 30.6482 138.749 31.1283 139.142 31.4251C139.534 31.7219 139.792 32.106 139.917 32.5773C140.042 33.0487 140.105 33.8256 140.105 34.908C140.105 36.1301 140.024 37.0292 139.864 37.6054C139.721 38.1989 139.4 38.4957 138.901 38.4957C138.74 38.4957 138.312 38.3212 137.617 37.972C136.939 37.6403 135.994 37.1427 134.782 36.4793C133.569 35.8333 132.464 35.2572 131.465 34.7509C130.484 34.2272 128.924 33.459 126.784 32.4464ZM129.138 8.79903C129.156 8.92124 129.165 9.03471 129.165 9.13946C129.183 9.24422 129.191 9.39261 129.191 9.58465C129.191 10.0735 129.031 10.6409 128.71 11.2868C128.407 11.9153 128.006 12.57 127.506 13.2509C127.025 13.9143 126.294 14.8745 125.313 16.1315C124.35 17.3711 123.459 18.5146 122.638 19.5621C126.383 18.8638 129.575 18.1916 132.214 17.5457C134.871 16.8997 137.055 16.2538 138.767 15.6078C140.479 14.9444 141.763 14.2548 142.619 13.539C143.493 12.8057 143.929 12.0463 143.929 11.2607C143.929 10.3877 143.02 9.70686 141.201 9.21803C139.4 8.71173 137.189 8.45859 134.568 8.45859C134.033 8.45859 133.462 8.47605 132.856 8.51096C132.267 8.52842 131.554 8.5808 130.716 8.66809C129.896 8.73792 129.37 8.78157 129.138 8.79903Z" fill="white"/>
<path d="M159.737 21.8143H163.776C166.112 18.7416 167.887 16.0617 169.099 13.7747C170.329 11.4876 170.945 9.9862 170.945 9.2704C170.945 8.27527 170.071 7.77771 168.323 7.77771C167.307 7.865 165.506 8.08323 162.92 8.4324C160.335 8.76411 157.829 9.16565 155.404 9.63703C153.229 10.0386 151.481 10.4576 150.162 10.894C148.86 11.313 147.942 11.6622 147.407 11.9415C146.872 12.2209 146.542 12.4216 146.417 12.5438C147.737 12.474 148.851 12.4391 149.76 12.4391C151.187 12.4391 151.9 12.5962 151.9 12.9105C151.9 13.0501 151.401 13.2335 150.402 13.4604C149.404 13.6699 148.459 13.8969 147.567 14.1413C146.693 14.3857 145.837 14.6738 144.999 15.0055C144.179 15.3372 143.68 15.503 143.502 15.503C143.091 15.503 142.753 15.3546 142.485 15.0579C142.218 14.7436 142.084 14.3683 142.084 13.9318C142.084 13.635 142.325 12.8668 142.806 11.6273C143.305 10.3703 144.001 9.11328 144.892 7.85627C145.784 6.58181 146.89 5.63906 148.209 5.02801C148.691 4.80106 150.224 4.39078 152.81 3.7972C155.413 3.20361 158.347 2.6624 161.61 2.17357C164.873 1.68473 167.86 1.44032 170.57 1.44032C172.211 1.44032 173.521 1.66728 174.502 2.12119C175.501 2.55765 176 3.50914 176 4.97564C176 5.44702 175.822 6.18027 175.465 7.1754C175.108 8.15307 174.538 9.41007 173.753 10.9464C172.986 12.4827 172.041 14.1675 170.918 16.0006C169.812 17.8337 168.546 19.7716 167.12 21.8143H171.239L167.681 26.8161C167.2 26.851 166.594 26.8772 165.863 26.8946C165.149 26.9121 164.365 26.9383 163.509 26.9732C161.316 29.7665 158.935 32.394 156.367 34.8557C153.817 37.3173 151.499 39.2901 149.413 40.7741C147.344 42.258 145.891 43 145.053 43C144.714 43 144.42 42.8865 144.17 42.6596C143.921 42.4501 143.796 42.1707 143.796 41.8216C143.796 41.5248 144.188 40.7653 144.973 39.5432C145.775 38.3212 146.881 37.1776 148.289 36.1127C149.698 35.0477 151.303 34.4541 153.104 34.3319C153.835 33.5812 154.459 32.9178 154.976 32.3417C155.511 31.7481 156.26 30.9013 157.223 29.8015C158.186 28.6841 158.926 27.8287 159.443 27.2351L151.392 27.6279C150.518 27.6628 149.912 27.6279 149.573 27.5231C149.252 27.4009 149.092 27.1129 149.092 26.659C149.092 26.659 149.181 26.4407 149.359 26.0043C149.538 25.5503 149.725 25.1575 149.921 24.8258C150.206 24.3195 150.429 24.014 150.59 23.9093C150.768 23.8045 151.258 23.6648 152.061 23.4903L156.982 22.3118C158.302 21.9801 159.22 21.8143 159.737 21.8143Z" fill="white"/>
</svg>
